<?xml version="1.0" encoding="UTF-8"?>
<svg xmlns="http://www.w3.org/2000/svg" xmlns:xlink="http://www.w3.org/1999/xlink" viewBox="0 0 1080 1080">
  <defs>
    <style>
      .cls-1, .cls-2, .cls-3, .cls-4, .cls-5, .cls-6, .cls-7, .cls-8, .cls-9, .cls-10, .cls-11, .cls-12, .cls-13, .cls-14, .cls-15, .cls-16, .cls-17, .cls-18, .cls-19, .cls-20, .cls-21, .cls-22 {
        stroke-width: 0px;
      }

      .cls-1, .cls-23 {
        fill: #676767;
      }

      .cls-24 {
        stroke-width: 11px;
      }

      .cls-24, .cls-25, .cls-26, .cls-27, .cls-23, .cls-28, .cls-29 {
        stroke: #000;
      }

      .cls-24, .cls-6, .cls-28, .cls-29 {
        fill: none;
      }

      .cls-24, .cls-28 {
        stroke-miterlimit: 10;
      }

      .cls-2 {
        fill: #a5a19d;
      }

      .cls-2, .cls-5 {
        opacity: .47;
      }

      .cls-30 {
        isolation: isolate;
      }

      .cls-3 {
        fill: #0f0f0f;
      }

      .cls-4 {
        fill: #1a1a1a;
      }

      .cls-5 {
        fill: #c9c5c5;
      }

      .cls-25 {
        fill: #c5c5c5;
      }

      .cls-25, .cls-26, .cls-27, .cls-23 {
        stroke-width: 25px;
      }

      .cls-25, .cls-26, .cls-27, .cls-23, .cls-29 {
        stroke-linecap: round;
        stroke-linejoin: round;
      }

      .cls-31 {
        filter: url(#outer-glow-1);
      }

      .cls-7 {
        opacity: .32;
      }

      .cls-7, .cls-9, .cls-10, .cls-13, .cls-14, .cls-16, .cls-18 {
        fill: #fff;
      }

      .cls-7, .cls-9, .cls-13, .cls-14, .cls-16, .cls-18 {
        mix-blend-mode: color-dodge;
      }

      .cls-32 {
        clip-path: url(#clippath-1);
      }

      .cls-8 {
        fill: #dadada;
      }

      .cls-9 {
        opacity: .17;
      }

      .cls-11 {
        fill: url(#Degradado_sin_nombre_4);
      }

      .cls-12 {
        fill: #fffefd;
      }

      .cls-13 {
        opacity: .27;
      }

      .cls-14 {
        opacity: .58;
      }

      .cls-26 {
        fill: #3d3d3d;
      }

      .cls-27 {
        fill: #f3f2f0;
      }

      .cls-33 {
        clip-path: url(#clippath);
      }

      .cls-15 {
        fill: #444443;
      }

      .cls-16 {
        opacity: .38;
      }

      .cls-28 {
        stroke-width: 7px;
      }

      .cls-17 {
        fill: #dbdbdb;
      }

      .cls-18 {
        opacity: .42;
      }

      .cls-19 {
        fill: #ede8e8;
        opacity: .5;
      }

      .cls-29 {
        stroke-width: 9px;
      }

      .cls-20 {
        fill: #dddcdb;
      }

      .cls-21 {
        fill: #383838;
      }

      .cls-22 {
        fill: #9b4200;
      }
    </style>
    <clipPath id="clippath">
      <circle class="cls-6" cx="1793.26" cy="540" r="481.43"/>
    </clipPath>
    <clipPath id="clippath-1">
      <circle class="cls-6" cx="540" cy="539.82" r="540"/>
    </clipPath>
    <linearGradient id="Degradado_sin_nombre_4" data-name="Degradado sin nombre 4" x1="0" y1="539.82" x2="1080" y2="539.82" gradientUnits="userSpaceOnUse">
      <stop offset="0" stop-color="#37e1d6"/>
      <stop offset="1" stop-color="#05e5a3"/>
    </linearGradient>
    <filter id="outer-glow-1" filterUnits="userSpaceOnUse">
      <feOffset dx="0" dy="0"/>
      <feGaussianBlur result="blur" stdDeviation="11"/>
      <feFlood flood-color="#20ce45" flood-opacity=".75"/>
      <feComposite in2="blur" operator="in"/>
      <feComposite in="SourceGraphic"/>
    </filter>
  </defs>
  <g class="cls-30">
    <g id="Capa_3" data-name="Capa 3">
      <path class="cls-1" d="m34.72,988.91c-3.84-3.36-6.25-8.27-6.25-13.76s2.42-10.43,6.26-13.78c-13.18,14.05-.55,27.01-.02,27.54Z"/>
      <g class="cls-33">
        <polyline class="cls-14" points="1048.7 1157.59 1562.31 643.98 1562.31 675.82 1065.07 1173.06"/>
      </g>
      <path class="cls-8" d="m447.82,1053.6c-.68,0-1.38-.07-2.08-.2l-2.09-.39v-.23c1.39.29,2.78.57,4.17.82Z"/>
      <g class="cls-32">
        <circle class="cls-11" cx="540" cy="539.82" r="540"/>
        <polyline class="cls-18" points="783.3 56.34 279.26 560.38 279.26 608.49 833.52 54.24"/>
        <polyline class="cls-14" points="891.26 45.79 667.57 269.48 630.83 269.48 787.79 112.52 870.73 29.58"/>
        <polyline class="cls-9" points="1128.36 349.89 624.32 853.93 624.32 902.04 1178.58 347.78"/>
        <polyline class="cls-16" points="1282.09 385.11 1058.4 608.8 1021.66 608.8 1178.63 451.84 1261.56 368.91"/>
        <polyline class="cls-14" points="177.53 988.61 810.94 355.2 810.94 394.47 197.72 1007.69"/>
        <polyline class="cls-14" points="-2.59 996.7 630.83 363.29 630.83 402.56 17.61 1015.78"/>
        <polyline class="cls-14" points="-369.94 1301.7 263.47 668.28 263.47 707.55 -349.75 1320.77"/>
        <polyline class="cls-13" points="-132.61 796.17 500.81 162.75 500.81 202.02 -112.42 815.24"/>
        <polyline class="cls-7" points="695.17 542.78 1007.15 230.8 1017.63 259.46 698.14 578.95"/>
        <g class="cls-31">
          <g>
            <path class="cls-25" d="m752.14,256.28c0,27.41-95,49.64-212.2,49.64s-210.61-21.86-212.13-48.97c-.04-.22-.04-.45-.04-.67,0-27.41,95-49.64,212.18-49.64,80.9,0,151.22,10.59,187.02,26.18,13.83,6,22.51,12.76,24.64,19.94.36,1.16.54,2.33.54,3.51Z"/>
            <path class="cls-25" d="m749.95,735.63c0,10.27,4.52,19.47,11.7,25.74v44.85c.11.81.11,0,.11.81,0,36.17-105.74,66.42-226.26,66.42s-212.11-27.5-217.91-62.1c-.2-1.12-.29-2.24-.29-3.36v-46.28c7.43-6.24,12.13-15.62,12.13-26.07s-4.7-19.83-12.13-26.07v-23.92h.43c-.18-57.78-.89-297.42.07-363.26.49-34.04,5.1-53.89,10-65.41,1.52,27.1,95.92,48.97,212.13,48.97s212.2-22.22,212.2-49.64c0-1.19-.18-2.35-.54-3.51,11.82,16.56,9.94,33.64,9.94,33.64v399.23h.11v24.26c-7.18,6.27-11.7,15.46-11.7,25.74Z"/>
            <path class="cls-27" d="m695.24,256.28c0,.49-.03.96-.13,1.43-3.24,19.51-72.56,35.08-157.64,35.08s-153.71-15.43-157.59-34.8c0,0,0-.02-.02-.03-.12-.56-.17-1.11-.17-1.69,0-20.16,70.64-36.5,157.77-36.5s157.77,16.34,157.77,36.5Z"/>
            <path class="cls-23" d="m761.65,761.36c-267.32,82.89-444.34.34-444.34.34,27.07-27.66,0-52.14,0-52.14,54.9,19.83,135.02,35.67,218.94,35.67,91.35,0,169.81-12.33,225.41-35.34-25.15,26.81,0,51.47,0,51.47Z"/>
            <path class="cls-26" d="m695.24,256.28c0,.49-.03.96-.13,1.43-16.84-36.7-155.14-36.35-155.14-36.35-151.33,2.53-160.08,36.64-160.08,36.64,0,0,0-.02-.02-.03-.12-.56-.17-1.11-.17-1.69,0-20.16,70.64-36.5,157.77-36.5s157.77,16.34,157.77,36.5Z"/>
          </g>
          <path class="cls-15" d="m752.14,256.28c0,27.41-95,49.64-212.2,49.64s-210.61-21.86-212.13-48.97c-.04-.22-.04-.45-.04-.67,0-27.41,95-49.64,212.18-49.64,80.9,0,151.22,10.59,187.02,26.18,13.83,6,22.51,12.76,24.64,19.94.36,1.16.54,2.33.54,3.51Z"/>
          <path class="cls-21" d="m749.75,735.63c0,10.27,4.52,19.47,11.7,25.74v44.85c.11.81.11,0,.11.81,0,36.17-105.74,66.42-226.26,66.42s-212.11-27.5-217.91-62.1c-.2-1.12-.29-2.24-.29-3.36v-46.28c7.43-6.24,12.13-15.62,12.13-26.07s-4.7-19.83-12.13-26.07v-23.92h.43c-.18-57.78-.89-297.42.07-363.26.49-34.04,5.1-53.89,10-65.41,1.52,27.1,95.92,48.97,212.13,48.97s212.2-22.22,212.2-49.64c0-1.19-.18-2.35-.54-3.51,11.82,16.56,9.94,33.64,9.94,33.64v399.23h.11v24.26c-7.18,6.27-11.7,15.46-11.7,25.74Z"/>
          <path class="cls-20" d="m695.24,256.28c0,.49-.03.96-.13,1.43-3.24,19.51-72.56,35.08-157.64,35.08-20.42,0-39.92-.89-57.83-2.53h-.02c-56.33-5.14-96.79-17.57-99.74-32.27,0,0,0-.02-.02-.03-.12-.56-.17-1.11-.17-1.69,0-20.16,70.64-36.5,157.77-36.5,30.35,0,58.67,1.97,82.71,5.41,45.05,6.42,75.06,17.94,75.06,31.09Z"/>
          <path class="cls-2" d="m479.62,290.27c-56.33-5.14-96.79-17.57-99.74-32.27,0,0,0-.02-.02-.03-.12-.56-.17-1.11-.17-1.69,0-20.16,70.64-36.5,157.77-36.5,30.35,0,58.67,1.97,82.71,5.41l2.39,2.12s-221.13,31.68-142.95,62.95Z"/>
          <path class="cls-1" d="m761.71,764.3c-267.32,82.89-444.34.34-444.34.34,27.07-27.66,0-52.14,0-52.14,54.9,19.83,135.02,35.67,218.94,35.67,91.35,0,169.81-12.33,225.41-35.34-25.15,26.81,0,51.47,0,51.47Z"/>
          <path class="cls-3" d="m695.24,256.28c0,.49-.03.96-.13,1.43-16.84-36.7-155.14-36.35-155.14-36.35-151.33,2.53-160.08,36.64-160.08,36.64,0,0,0-.02-.02-.03-.12-.56-.17-1.11-.17-1.69,0-20.16,70.64-36.5,157.77-36.5s157.77,16.34,157.77,36.5Z"/>
          <path class="cls-19" d="m411.64,278.59c-1.62,1.4-3.52,2.48-5.66,3.19-.32.1-9.41,3.29-15.9,9.91-3.66,3.73-6.49,8.53-6.49,14.5v422.53c-11.77-2.61-23.05-5.46-33.72-8.48v-414.05c0-9.51,2.38-17.79,6.19-24.87,5.77-10.72,14.77-18.73,23.65-24.21.02.39.07.76.15,1.13.02.02.02.03.02.03,1.52,7.62,13.12,14.62,31.76,20.32Z"/>
          <path class="cls-5" d="m370.01,725.54s18.78,4.41,33.99,7.13,22.48,49.23,6.85,55.51l-36.81-7.92s10.77-22.61-4.03-54.72Z"/>
          <path class="cls-24" d="m754.54,251.78c0,.75-2.4,3.31-2.4,4.5,0,27.41-95,49.64-212.2,49.64s-210.61-21.86-212.13-48.97c-.55-3.4-.59-3.98-1.09-11.3"/>
          <path class="cls-28" d="m695.24,256.28c0,.49-.03.96-.13,1.43-3.24,19.51-72.56,35.08-157.64,35.08-20.42,0-39.92-.89-57.83-2.53h-.02c-56.33-5.14-96.79-17.57-99.74-32.27,0,0,0-.02-.02-.03-.12-.56-.17-1.11-.17-1.69,0-20.16,70.64-36.5,157.77-36.5,30.35,0,58.67,1.97,82.71,5.41,45.05,6.42,75.06,17.94,75.06,31.09Z"/>
          <path class="cls-19" d="m352.38,774.29v50.51s-.5,19.27,10.23,23.12c10.73,3.86,24.58,8.59,37.93,11.5,0,0-3.18-11.16-1.21-28.02v-45.18l-46.95-11.93Z"/>
          <g>
            <g>
              <path class="cls-10" d="m421.4,357.04c0-12.55,0-25.1,0-37.65,7.65,1.09,11.46,1.78,19.1,3.14,0,1.92,0,3.19,0,5.78-5.73-.99-8.6-1.48-14.33-2.37,0,5.26,0,8.72,0,12.57,5.74.86,8.61,1.32,14.36,2.22,0,1.92,0,2.88,0,4.81-5.75-.9-8.62-1.37-14.36-2.22,0,5.77,0,8.69,0,14.41-1.91-.28-2.87-.42-4.78-.7Zm19.14-16.3c0-3.84-.02-7.22-.03-12.42,1.91.33,2.87.49,4.78.82.02,5.16.05,8.52.05,12.35-1.92-.3-2.88-.45-4.79-.75Z"/>
              <path class="cls-10" d="m450.13,342.23c0-3.81-.03-7.14-.07-12.27,1.91.32,2.87.48,4.78.79.04,5.09.08,8.4.08,12.19-1.92-.28-2.88-.43-4.8-.72Zm0,14.44c0-1.92,0-2.88,0-4.81,1.92.29,2.88.44,4.8.72,0,1.93,0,2.89,0,4.81-1.92-.28-2.88-.43-4.8-.73Zm4.71-25.91c-.02-2.55-.03-3.79-.03-5.69,5.73.97,8.6,1.44,14.34,2.2,0,1.88.01,3.11.04,5.61-5.75-.74-8.62-1.19-14.36-2.12Zm.08,17.01c0-1.93,0-2.89,0-4.81,5.76.85,8.64,1.25,14.4,1.94,0,1.92,0,2.89,0,4.82-5.76-.69-8.65-1.09-14.4-1.94Zm0,14.14c0-1.71,0-2.58,0-4.5,5.76.85,8.64,1.26,14.4,1.96,0,1.89,0,2.7,0,4.3-5.77-.62-8.65-.99-14.4-1.75Zm14.35-22.63c-.03-2.51-.05-3.89-.08-6.39,1.92.25,2.87.36,4.79.57.03,2.5.06,3.87.09,6.37-1.92-.21-2.88-.32-4.8-.55Zm.05,20.08c0-3.85,0-5.79,0-9.65,1.92.23,2.88.34,4.8.54,0,3.86,0,5.81,0,9.65-1.92-.21-2.88-.32-4.8-.55Z"/>
              <path class="cls-10" d="m478.94,360.37c.03-10.68-.07-21.36-.2-32.04,1.92.17,2.88.25,4.8.37.14,10.69.24,21.38.21,32.07-1.92-.14-2.89-.22-4.81-.4Zm4.81,4.58c0-1.51,0-2.28,0-4.18,5.77.43,8.66.51,14.44.74,0,1.93,0,2.69,0,4.17-5.78-.23-8.67-.33-14.44-.73Zm14.43-3.44c-.01-10.73,0-21.47-.04-32.2,1.95.1,2.92.16,4.85.29.02,10.7-.02,21.4,0,32.1-1.93-.07-2.89-.1-4.82-.18Z"/>
              <path class="cls-10" d="m517.46,362.08c0-9.66.07-13.59-.12-25.8,1.9.14,2.85.21,4.75.34.27,12.07.19,15.91.19,25.53-1.93-.02-2.89-.04-4.82-.07Zm4.63-25.46c-.05-2.41-.08-3.6-.03-5.55,5.66.46,8.47.69,14.12,1-.01,1.92.03,3.07.14,5.4-5.69-.25-8.52-.45-14.22-.84Zm.19,29.66c0-1.46,0-2.2,0-4.13,5.78.07,8.68.08,14.46.03,0,1.92,0,2.66,0,4.09-5.78.06-8.67.06-14.46,0Zm14.46-4.09c0-3.81,0-5.38,0-8.88-3.86-.04-5.78-.08-9.64-.19,0-1.8,0-2.7,0-4.62,5.78.21,8.68.29,14.46.33,0,5.71,0,7.58,0,13.3-1.93.03-2.89.04-4.82.06Z"/>
              <path class="cls-10" d="m546.37,348.84c0-1.91-.06-3.03-.2-5.31,7.67.01,11.52-.24,19.22-.59.15,2.24.22,3.34.23,5.28-7.7.35-11.55.58-19.25.62Zm0,13.19c0-1.9,0-2.77,0-4.48,1.93-.04,2.89-.06,4.82-.12,0,1.7,0,2.55,0,4.46-1.93.06-2.89.09-4.82.14Zm4.81,3.93c0-1.42,0-2.15,0-4.07,5.78-.19,8.67-.34,14.44-.62,0-1.93,0-2.78,0-4.46-5.77.28-8.66.45-14.44.62,0-1.7,0-2.5,0-4.2,5.78-.13,8.67-.3,14.44-.57,0-1.68,0-2.53,0-4.45,1.92-.09,2.89-.13,4.81-.22,0,7.71,0,11.31,0,17.13-7.69.34-11.54.58-19.25.84Z"/>
              <path class="cls-10" d="m575.24,364.92c0-7.41.47-11.32-.21-22.41,7.71-.35,11.57-.51,19.28-.96.09,2.16.13,3.23.15,5.2-5.76.37-8.64.52-14.4.8,0,7.7,0,11.1,0,17.16-1.92.09-2.88.13-4.81.21Zm19.21-.95c0-6.52,0-9.54,0-17.23,1.92-.12,2.88-.19,4.8-.33,0,7.68,0,10.57,0,17.25-1.92.13-2.88.19-4.8.3Z"/>
              <path class="cls-10" d="m604.05,354.45c0-3.26,0-4.55,0-8.39,1.92-.15,2.88-.24,4.79-.41,0,3.83,0,5.11,0,8.36-1.92.18-2.88.27-4.79.44Zm0,17.63c0-1.94,0-2.81,0-4.52,7.67-.42,11.5-.7,19.16-1.61,0,1.82,0,2.74,0,4.68-7.65.89-11.49,1.12-19.16,1.45Zm19.16-6.12c0-3.64,0-5.32,0-9.2-5.74.75-8.61,1.06-14.36,1.62,0-1.92,0-2.74,0-4.36,5.75-.55,8.62-.86,14.36-1.61,0-3.22,0-4.47,0-8.3-5.74.73-8.61,1.03-14.36,1.55,0-1.96-.03-3-.08-5.1,7.7-.62,11.55-1,19.22-1.99,0,11.89,0,15.78,0,26.77-1.91.27-2.87.39-4.78.62Z"/>
            </g>
            <g>
              <path class="cls-12" d="m421.4,357.04c0-12.55,0-25.1,0-37.65,7.65,1.09,11.46,1.78,19.1,3.14,0,1.92,0,3.19,0,5.78-5.73-.99-8.6-1.48-14.33-2.37,0,5.26,0,8.72,0,12.57,5.74.86,8.61,1.32,14.36,2.22,0,1.92,0,2.88,0,4.81-5.75-.9-8.62-1.37-14.36-2.22,0,5.77,0,8.69,0,14.41-1.91-.28-2.87-.42-4.78-.7Zm19.14-16.3c0-3.84-.02-7.22-.03-12.42,1.91.33,2.87.49,4.78.82.02,5.16.05,8.52.05,12.35-1.92-.3-2.88-.45-4.79-.75Z"/>
              <path class="cls-10" d="m450.13,342.23c0-3.81-.03-7.14-.07-12.27,1.91.32,2.87.48,4.78.79.04,5.09.08,8.4.08,12.19-1.92-.28-2.88-.43-4.8-.72Zm0,14.44c0-1.92,0-2.88,0-4.81,1.92.29,2.88.44,4.8.72,0,1.93,0,2.89,0,4.81-1.92-.28-2.88-.43-4.8-.73Zm4.71-25.91c-.02-2.55-.03-3.79-.03-5.69,5.73.97,8.6,1.44,14.34,2.2,0,1.88.01,3.11.04,5.61-5.75-.74-8.62-1.19-14.36-2.12Zm.08,17.01c0-1.93,0-2.89,0-4.81,5.76.85,8.64,1.25,14.4,1.94,0,1.92,0,2.89,0,4.82-5.76-.69-8.65-1.09-14.4-1.94Zm0,14.14c0-1.71,0-2.58,0-4.5,5.76.85,8.64,1.26,14.4,1.96,0,1.89,0,2.7,0,4.3-5.77-.62-8.65-.99-14.4-1.75Zm14.35-22.63c-.03-2.51-.05-3.89-.08-6.39,1.92.25,2.87.36,4.79.57.03,2.5.06,3.87.09,6.37-1.92-.21-2.88-.32-4.8-.55Zm.05,20.08c0-3.85,0-5.79,0-9.65,1.92.23,2.88.34,4.8.54,0,3.86,0,5.81,0,9.65-1.92-.21-2.88-.32-4.8-.55Z"/>
              <path class="cls-10" d="m478.94,360.37c.03-10.68-.07-21.36-.2-32.04,1.92.17,2.88.25,4.8.37.14,10.69.24,21.38.21,32.07-1.92-.14-2.89-.22-4.81-.4Zm4.81,4.58c0-1.51,0-2.28,0-4.18,5.77.43,8.66.51,14.44.74,0,1.93,0,2.69,0,4.17-5.78-.23-8.67-.33-14.44-.73Zm14.43-3.44c-.01-10.73,0-21.47-.04-32.2,1.95.1,2.92.16,4.85.29.02,10.7-.02,21.4,0,32.1-1.93-.07-2.89-.1-4.82-.18Z"/>
              <path class="cls-10" d="m517.46,362.08c0-9.66.07-13.59-.12-25.8,1.9.14,2.85.21,4.75.34.27,12.07.19,15.91.19,25.53-1.93-.02-2.89-.04-4.82-.07Zm4.63-25.46c-.05-2.41-.08-3.6-.03-5.55,5.66.46,8.47.69,14.12,1-.01,1.92.03,3.07.14,5.4-5.69-.25-8.52-.45-14.22-.84Zm.19,29.66c0-1.46,0-2.2,0-4.13,5.78.07,8.68.08,14.46.03,0,1.92,0,2.66,0,4.09-5.78.06-8.67.06-14.46,0Zm14.46-4.09c0-3.81,0-5.38,0-8.88-3.86-.04-5.78-.08-9.64-.19,0-1.8,0-2.7,0-4.62,5.78.21,8.68.29,14.46.33,0,5.71,0,7.58,0,13.3-1.93.03-2.89.04-4.82.06Z"/>
              <path class="cls-10" d="m546.37,348.84c0-1.91-.06-3.03-.2-5.31,7.67.01,11.52-.24,19.22-.59.15,2.24.22,3.34.23,5.28-7.7.35-11.55.58-19.25.62Zm0,13.19c0-1.9,0-2.77,0-4.48,1.93-.04,2.89-.06,4.82-.12,0,1.7,0,2.55,0,4.46-1.93.06-2.89.09-4.82.14Zm4.81,3.93c0-1.42,0-2.15,0-4.07,5.78-.19,8.67-.34,14.44-.62,0-1.93,0-2.78,0-4.46-5.77.28-8.66.45-14.44.62,0-1.7,0-2.5,0-4.2,5.78-.13,8.67-.3,14.44-.57,0-1.68,0-2.53,0-4.45,1.92-.09,2.89-.13,4.81-.22,0,7.71,0,11.31,0,17.13-7.69.34-11.54.58-19.25.84Z"/>
              <path class="cls-12" d="m575.24,364.92c0-7.41.47-11.32-.21-22.41,7.71-.35,11.57-.51,19.28-.96.09,2.16.13,3.23.15,5.2-5.76.37-8.64.52-14.4.8,0,7.7,0,11.1,0,17.16-1.92.09-2.88.13-4.81.21Zm19.21-.95c0-6.52,0-9.54,0-17.23,1.92-.12,2.88-.19,4.8-.33,0,7.68,0,10.57,0,17.25-1.92.13-2.88.19-4.8.3Z"/>
              <path class="cls-10" d="m604.05,354.45c0-3.26,0-4.55,0-8.39,1.92-.15,2.88-.24,4.79-.41,0,3.83,0,5.11,0,8.36-1.92.18-2.88.27-4.79.44Zm0,17.63c0-1.94,0-2.81,0-4.52,7.67-.42,11.5-.7,19.16-1.61,0,1.82,0,2.74,0,4.68-7.65.89-11.49,1.12-19.16,1.45Zm19.16-6.12c0-3.64,0-5.32,0-9.2-5.74.75-8.61,1.06-14.36,1.62,0-1.92,0-2.74,0-4.36,5.75-.55,8.62-.86,14.36-1.61,0-3.22,0-4.47,0-8.3-5.74.73-8.61,1.03-14.36,1.55,0-1.96-.03-3-.08-5.1,7.7-.62,11.55-1,19.22-1.99,0,11.89,0,15.78,0,26.77-1.91.27-2.87.39-4.78.62Z"/>
            </g>
          </g>
          <g>
            <g>
              <path class="cls-22" d="m435.75,461.09c0-5.77,0-8.65,0-14.41-5.74-.73-8.61-1.12-14.35-1.93,0-7.69,0-11.53,0-19.22,1.91.27,2.87.41,4.78.67,0,5.76,0,8.65,0,14.41,3.83.53,5.74.78,9.57,1.27,0-5.76,0-8.65,0-14.41,1.91.24,2.87.36,4.79.6,0,5.76,0,8.65,0,14.41,1.92.23,2.87.35,4.79.57v4.8c-1.92-.22-2.87-.34-4.79-.57,0,5.76,0,8.65,0,14.41-1.92-.23-2.87-.35-4.79-.6Z"/>
              <path class="cls-22" d="m450.13,458.01c0-9.61,0-14.41,0-24.02,1.92.21,2.88.32,4.79.53,0,5.76,0,8.65,0,14.41,1.92.21,2.88.31,4.8.5,0,1.92,0,2.88,0,4.8-1.92-.2-2.88-.3-4.8-.5,0,1.92,0,2.88,0,4.8-1.92-.21-2.88-.31-4.79-.53Zm4.79-23.49c0-1.92,0-2.88,0-4.8,5.75.62,8.63.9,14.4,1.43,0,1.92,0,2.88,0,4.8-5.76-.53-8.64-.82-14.4-1.43Zm0,28.82c0-1.92,0-2.88,0-4.8,5.75.62,8.63.9,14.4,1.43,0,1.92,0,2.88,0,4.8-5.76-.53-8.64-.82-14.4-1.43Zm4.8-13.91v-4.8c1.92.2,2.88.29,4.8.48v4.8c-1.92-.19-2.88-.28-4.8-.48Zm9.6,10.54c0-5.76,0-8.65,0-14.41-1.92-.18-2.88-.27-4.8-.45,0-1.92,0-2.88,0-4.8,1.92.19,2.88.28,4.8.45,0-1.92,0-2.88,0-4.8,1.92.18,2.88.26,4.8.43,0,9.61,0,14.41,0,24.02-1.92-.17-2.88-.25-4.8-.43Z"/>
              <path class="cls-22" d="m478.92,460.8c0-9.61,0-14.41,0-24.02,1.92.16,2.88.23,4.8.38,0,5.76,0,8.65,0,14.41,1.92.15,2.88.22,4.81.36,0,1.92,0,2.88,0,4.8-1.92-.14-2.88-.21-4.81-.36,0,1.92,0,2.88,0,4.8-1.92-.15-2.88-.22-4.8-.38Zm4.8-23.64c0-1.92,0-2.88,0-4.8,5.77.44,8.65.64,14.42,1,0,1.92,0,2.88,0,4.8-5.77-.36-8.66-.56-14.42-1Zm0,28.82c0-1.92,0-2.88,0-4.8,5.77.44,8.65.64,14.42,1,0,1.92,0,2.88,0,4.8-5.77-.36-8.66-.56-14.42-1Zm4.81-14.05v-4.8c1.92.14,2.88.21,4.81.33,0,1.92,0,2.88,0,4.8-1.92-.13-2.88-.2-4.81-.33Zm9.62,10.25c0-5.76,0-8.65,0-14.41-1.92-.12-2.89-.18-4.81-.31,0-1.92,0-2.88,0-4.8,1.92.13,2.88.19,4.81.31,0-1.92,0-2.88,0-4.8,1.92.12,2.89.18,4.81.29,0,9.61,0,14.41,0,24.02-1.92-.11-2.89-.17-4.81-.29Z"/>
              <path class="cls-22" d="m507.77,457.93c0-9.61,0-14.41,0-24.02,1.92.1,2.89.15,4.81.24,0,9.61,0,14.41,0,24.02-1.92-.09-2.89-.14-4.81-.24Zm4.81,5.04c0-1.92,0-2.88,0-4.8,1.93.09,2.89.13,4.81.21,0,1.92,0,2.88,0,4.8-1.93-.08-2.89-.12-4.81-.21Zm4.81,5.02c0-1.92,0-2.88,0-4.8,1.92.08,2.89.12,4.81.19,0,1.92,0,2.88,0,4.8-1.93-.07-2.89-.11-4.81-.19Zm4.81-4.61c0-1.92,0-2.88,0-4.8,1.93.07,2.89.11,4.81.17,0,1.92,0,2.88,0,4.8-1.93-.06-2.89-.1-4.81-.17Zm4.81-4.64c0-9.61,0-14.41,0-24.02,1.93.06,2.89.09,4.81.14,0,9.61,0,14.41,0,24.02-1.93-.05-2.89-.08-4.81-.14Z"/>
              <path class="cls-22" d="m546.28,454.37c0-7.69,0-11.53,0-19.22,9.63.12,14.45.12,24.08,0,0,1.92,0,2.88,0,4.8-7.7.1-11.56.11-19.26.05,0,3.84,0,5.76,0,9.61,5.78.04,8.67.04,14.45,0v4.8c-7.71.06-11.56.05-19.27-.05Zm0,9.61c0-1.92,0-2.88,0-4.8,1.93.02,2.89.03,4.82.05,0,1.92,0,2.88,0,4.8-1.93-.01-2.89-.02-4.82-.05Zm4.82,4.85c0-1.92,0-2.88,0-4.8,5.78.04,8.67.04,14.45,0,0,1.92,0,2.88,0,4.8-5.78.04-8.67.04-14.45,0Zm14.45-4.8c0-3.84,0-5.76,0-9.61,1.93-.01,2.89-.02,4.81-.05,0,3.84,0,5.76,0,9.61-1.93.02-2.89.03-4.81.05Z"/>
              <path class="cls-22" d="m575.17,449.49c0-3.84,0-5.76,0-9.61,1.93-.03,2.89-.05,4.82-.1,0,3.84,0,5.76,0,9.61-1.93.04-2.89.06-4.82.1Zm0,14.41c0-3.84,0-5.76,0-9.61,1.93-.03,2.89-.05,4.82-.1,0,3.84,0,5.76,0,9.61-1.93.04-2.89.06-4.82.1Zm4.82-24.12c0-1.92,0-2.88,0-4.8,5.78-.13,8.67-.21,14.44-.43,0,1.92,0,2.88,0,4.8-5.78.21-8.67.3-14.44.43Zm0,14.41v-4.8c5.78-.13,8.67-.21,14.44-.43v4.8c-5.78.21-8.67.3-14.44.43Zm0,14.41c0-1.92,0-2.88,0-4.8,5.78-.13,8.67-.21,14.44-.43,0,1.92,0,2.88,0,4.8-5.78.21-8.67.3-14.44.43Zm14.44-19.65c0-3.84,0-5.76,0-9.61,1.92-.07,2.89-.11,4.81-.19,0,3.84,0,5.76,0,9.61-1.92.08-2.89.12-4.81.19Zm0,14.41c0-3.84,0-5.76,0-9.61,1.92-.07,2.89-.11,4.81-.19,0,3.84,0,5.76,0,9.61-1.92.08-2.89.12-4.81.19Z"/>
              <path class="cls-22" d="m604.06,462.97c0-9.61,0-14.41,0-24.02,1.93-.09,2.89-.14,4.81-.24,0,5.76,0,8.65,0,14.41,1.92-.1,2.89-.15,4.81-.26,0,1.92,0,2.88,0,4.8-1.92.11-2.89.16-4.81.26v4.8c-1.92.1-2.89.15-4.81.24Zm4.81-24.26c0-1.92,0-2.88,0-4.8,5.77-.3,8.66-.47,14.43-.86,0,1.92,0,2.88,0,4.8-5.77.39-8.66.56-14.43.86Zm0,28.82c0-1.92,0-2.88,0-4.8,5.77-.3,8.66-.47,14.43-.86,0,1.92,0,2.88,0,4.8-5.77.39-8.66.56-14.43.86Zm4.81-14.67v-4.8c1.92-.11,2.89-.17,4.81-.29v4.8c-1.92.12-2.89.18-4.81.29Zm9.62,9.01c0-5.77,0-8.65,0-14.41-1.92.13-2.89.19-4.81.31,0-1.92,0-2.88,0-4.8,1.92-.12,2.89-.18,4.81-.31,0-1.92,0-2.88,0-4.8,1.92-.13,2.88-.2,4.81-.33,0,9.61,0,14.41,0,24.02-1.92.14-2.88.21-4.81.33Z"/>
              <path class="cls-22" d="m642.52,460.4c0-7.69,0-11.53,0-19.22,1.92-.17,2.88-.25,4.8-.43v19.22c-1.92.18-2.88.26-4.8.43Zm4.8,4.38v-4.8c5.76-.53,8.64-.82,14.39-1.43,0-7.69,0-11.53,0-19.22,1.92-.21,2.88-.31,4.79-.52,0,9.61,0,14.41,0,24.02-7.67.86-11.51,1.25-19.19,1.96Z"/>
              <path class="cls-22" d="m671.31,462.26c0-11.21,0-22.42,0-33.63,9.58-1.12,14.37-1.74,23.93-3.1,0,1.92,0,2.88,0,4.8-7.65,1.09-11.48,1.59-19.14,2.53,0,3.84,0,5.76,0,9.61,5.75-.7,8.62-1.07,14.36-1.86v4.8c-5.74.79-8.61,1.16-14.36,1.86,0,5.76,0,8.65,0,14.41-1.92.23-2.87.35-4.79.57Z"/>
            </g>
            <g>
              <path class="cls-17" d="m435.75,461.09c0-5.77,0-8.65,0-14.41-5.74-.73-8.61-1.12-14.35-1.93,0-7.69,0-11.53,0-19.22,1.91.27,2.87.41,4.78.67,0,5.76,0,8.65,0,14.41,3.83.53,5.74.78,9.57,1.27,0-5.76,0-8.65,0-14.41,1.91.24,2.87.36,4.79.6,0,5.76,0,8.65,0,14.41,1.92.23,2.87.35,4.79.57v4.8c-1.92-.22-2.87-.34-4.79-.57,0,5.76,0,8.65,0,14.41-1.92-.23-2.87-.35-4.79-.6Z"/>
              <path class="cls-17" d="m450.13,458.01c0-9.61,0-14.41,0-24.02,1.92.21,2.88.32,4.79.53,0,5.76,0,8.65,0,14.41,1.92.21,2.88.31,4.8.5,0,1.92,0,2.88,0,4.8-1.92-.2-2.88-.3-4.8-.5,0,1.92,0,2.88,0,4.8-1.92-.21-2.88-.31-4.79-.53Zm4.79-23.49c0-1.92,0-2.88,0-4.8,5.75.62,8.63.9,14.4,1.43,0,1.92,0,2.88,0,4.8-5.76-.53-8.64-.82-14.4-1.43Zm0,28.82c0-1.92,0-2.88,0-4.8,5.75.62,8.63.9,14.4,1.43,0,1.92,0,2.88,0,4.8-5.76-.53-8.64-.82-14.4-1.43Zm4.8-13.91v-4.8c1.92.2,2.88.29,4.8.48v4.8c-1.92-.19-2.88-.28-4.8-.48Zm9.6,10.54c0-5.76,0-8.65,0-14.41-1.92-.18-2.88-.27-4.8-.45,0-1.92,0-2.88,0-4.8,1.92.19,2.88.28,4.8.45,0-1.92,0-2.88,0-4.8,1.92.18,2.88.26,4.8.43,0,9.61,0,14.41,0,24.02-1.92-.17-2.88-.25-4.8-.43Z"/>
              <path class="cls-17" d="m478.92,460.8c0-9.61,0-14.41,0-24.02,1.92.16,2.88.23,4.8.38,0,5.76,0,8.65,0,14.41,1.92.15,2.88.22,4.81.36,0,1.92,0,2.88,0,4.8-1.92-.14-2.88-.21-4.81-.36,0,1.92,0,2.88,0,4.8-1.92-.15-2.88-.22-4.8-.38Zm4.8-23.64c0-1.92,0-2.88,0-4.8,5.77.44,8.65.64,14.42,1,0,1.92,0,2.88,0,4.8-5.77-.36-8.66-.56-14.42-1Zm0,28.82c0-1.92,0-2.88,0-4.8,5.77.44,8.65.64,14.42,1,0,1.92,0,2.88,0,4.8-5.77-.36-8.66-.56-14.42-1Zm4.81-14.05v-4.8c1.92.14,2.88.21,4.81.33,0,1.92,0,2.88,0,4.8-1.92-.13-2.88-.2-4.81-.33Zm9.62,10.25c0-5.76,0-8.65,0-14.41-1.92-.12-2.89-.18-4.81-.31,0-1.92,0-2.88,0-4.8,1.92.13,2.88.19,4.81.31,0-1.92,0-2.88,0-4.8,1.92.12,2.89.18,4.81.29,0,9.61,0,14.41,0,24.02-1.92-.11-2.89-.17-4.81-.29Z"/>
              <path class="cls-17" d="m507.77,457.93c0-9.61,0-14.41,0-24.02,1.92.1,2.89.15,4.81.24,0,9.61,0,14.41,0,24.02-1.92-.09-2.89-.14-4.81-.24Zm4.81,5.04c0-1.92,0-2.88,0-4.8,1.93.09,2.89.13,4.81.21,0,1.92,0,2.88,0,4.8-1.93-.08-2.89-.12-4.81-.21Zm4.81,5.02c0-1.92,0-2.88,0-4.8,1.92.08,2.89.12,4.81.19,0,1.92,0,2.88,0,4.8-1.93-.07-2.89-.11-4.81-.19Zm4.81-4.61c0-1.92,0-2.88,0-4.8,1.93.07,2.89.11,4.81.17,0,1.92,0,2.88,0,4.8-1.93-.06-2.89-.1-4.81-.17Zm4.81-4.64c0-9.61,0-14.41,0-24.02,1.93.06,2.89.09,4.81.14,0,9.61,0,14.41,0,24.02-1.93-.05-2.89-.08-4.81-.14Z"/>
              <path class="cls-17" d="m546.28,454.37c0-7.69,0-11.53,0-19.22,9.63.12,14.45.12,24.08,0,0,1.92,0,2.88,0,4.8-7.7.1-11.56.11-19.26.05,0,3.84,0,5.76,0,9.61,5.78.04,8.67.04,14.45,0v4.8c-7.71.06-11.56.05-19.27-.05Zm0,9.61c0-1.92,0-2.88,0-4.8,1.93.02,2.89.03,4.82.05,0,1.92,0,2.88,0,4.8-1.93-.01-2.89-.02-4.82-.05Zm4.82,4.85c0-1.92,0-2.88,0-4.8,5.78.04,8.67.04,14.45,0,0,1.92,0,2.88,0,4.8-5.78.04-8.67.04-14.45,0Zm14.45-4.8c0-3.84,0-5.76,0-9.61,1.93-.01,2.89-.02,4.81-.05,0,3.84,0,5.76,0,9.61-1.93.02-2.89.03-4.81.05Z"/>
              <path class="cls-17" d="m575.17,449.49c0-3.84,0-5.76,0-9.61,1.93-.03,2.89-.05,4.82-.1,0,3.84,0,5.76,0,9.61-1.93.04-2.89.06-4.82.1Zm0,14.41c0-3.84,0-5.76,0-9.61,1.93-.03,2.89-.05,4.82-.1,0,3.84,0,5.76,0,9.61-1.93.04-2.89.06-4.82.1Zm4.82-24.12c0-1.92,0-2.88,0-4.8,5.78-.13,8.67-.21,14.44-.43,0,1.92,0,2.88,0,4.8-5.78.21-8.67.3-14.44.43Zm0,14.41v-4.8c5.78-.13,8.67-.21,14.44-.43v4.8c-5.78.21-8.67.3-14.44.43Zm0,14.41c0-1.92,0-2.88,0-4.8,5.78-.13,8.67-.21,14.44-.43,0,1.92,0,2.88,0,4.8-5.78.21-8.67.3-14.44.43Zm14.44-19.65c0-3.84,0-5.76,0-9.61,1.92-.07,2.89-.11,4.81-.19,0,3.84,0,5.76,0,9.61-1.92.08-2.89.12-4.81.19Zm0,14.41c0-3.84,0-5.76,0-9.61,1.92-.07,2.89-.11,4.81-.19,0,3.84,0,5.76,0,9.61-1.92.08-2.89.12-4.81.19Z"/>
              <path class="cls-17" d="m604.06,462.97c0-9.61,0-14.41,0-24.02,1.93-.09,2.89-.14,4.81-.24,0,5.76,0,8.65,0,14.41,1.92-.1,2.89-.15,4.81-.26,0,1.92,0,2.88,0,4.8-1.92.11-2.89.16-4.81.26v4.8c-1.92.1-2.89.15-4.81.24Zm4.81-24.26c0-1.92,0-2.88,0-4.8,5.77-.3,8.66-.47,14.43-.86,0,1.92,0,2.88,0,4.8-5.77.39-8.66.56-14.43.86Zm0,28.82c0-1.92,0-2.88,0-4.8,5.77-.3,8.66-.47,14.43-.86,0,1.92,0,2.88,0,4.8-5.77.39-8.66.56-14.43.86Zm4.81-14.67v-4.8c1.92-.11,2.89-.17,4.81-.29v4.8c-1.92.12-2.89.18-4.81.29Zm9.62,9.01c0-5.77,0-8.65,0-14.41-1.92.13-2.89.19-4.81.31,0-1.92,0-2.88,0-4.8,1.92-.12,2.89-.18,4.81-.31,0-1.92,0-2.88,0-4.8,1.92-.13,2.88-.2,4.81-.33,0,9.61,0,14.41,0,24.02-1.92.14-2.88.21-4.81.33Z"/>
              <path class="cls-17" d="m642.52,460.4c0-7.69,0-11.53,0-19.22,1.92-.17,2.88-.25,4.8-.43v19.22c-1.92.18-2.88.26-4.8.43Zm4.8,4.38v-4.8c5.76-.53,8.64-.82,14.39-1.43,0-7.69,0-11.53,0-19.22,1.92-.21,2.88-.31,4.79-.52,0,9.61,0,14.41,0,24.02-7.67.86-11.51,1.25-19.19,1.96Z"/>
              <path class="cls-17" d="m671.31,462.26c0-11.21,0-22.42,0-33.63,9.58-1.12,14.37-1.74,23.93-3.1,0,1.92,0,2.88,0,4.8-7.65,1.09-11.48,1.59-19.14,2.53,0,3.84,0,5.76,0,9.61,5.75-.7,8.62-1.07,14.36-1.86v4.8c-5.74.79-8.61,1.16-14.36,1.86,0,5.76,0,8.65,0,14.41-1.92.23-2.87.35-4.79.57Z"/>
            </g>
          </g>
          <g>
            <g>
              <path class="cls-4" d="m421.4,407.59c0-1.92,0-2.88,0-4.8,1.91.27,2.87.41,4.78.68,0-7.67,0-11.52,0-19.21-1.91-.28-2.86-.42-4.77-.69,0-1.92,0-2.88,0-4.8,1.91.27,2.87.42,4.78.71,0-1.91,0-2.87,0-4.8,1.91.3,2.87.45,4.78.76-.04,9.57,0,19.14-.02,28.72,1.91.27,2.86.41,4.77.67,0,1.91-.01,2.86,0,4.79-5.71-.78-8.57-1.2-14.31-2.01Z"/>
              <path class="cls-4" d="m440.48,405.46c.05-9.5-.06-14.44.03-23.75,1.91.3,2.87.44,4.78.73-.08,5.52-.05,8.43-.02,14.12,1.91.25,2.86.37,4.78.6.01,1.89.02,2.86.01,4.76-1.91-.23-2.87-.35-4.78-.59,0,1.91-.02,2.85-.03,4.74-1.91-.24-2.86-.36-4.77-.62Zm4.81-23.02c.02-1.84.04-2.76.04-4.68,5.75.9,8.63,1.34,14.39,1.98,0,1.91-.03,2.79-.07,4.57-5.75-.61-8.62-1.01-14.36-1.87Zm-.06,28.39c0-1.92,0-2.87.02-4.76,5.72.72,8.58,1.04,14.33,1.55-.02,1.87-.04,2.8-.03,4.72-5.74-.5-8.6-.82-14.31-1.51Zm4.82-13.67c-.01-1.89-.03-2.82-.04-4.71,1.91.24,2.86.35,4.77.57.02,1.88.03,2.81.05,4.69-1.91-.21-2.87-.32-4.78-.55Zm9.53,10.46c.07-5.61.04-8.48-.02-14.11-1.91-.18-2.87-.28-4.78-.5-.02-1.88-.03-2.88,0-4.73,1.91.22,2.87.32,4.78.51.02-1.85.05-2.71.1-4.49,1.92.2,2.88.29,4.8.45-.24,8.82.05,13.93-.08,23.25-1.92-.14-2.88-.22-4.79-.39Z"/>
              <path class="cls-4" d="m469.21,398.92c-.09-7.48.11-10.67.13-18.35,9.62.56,14.45.86,24.09,1.4,0,1.92-.02,2.78-.05,4.53-7.74-.43-11.61-.73-19.32-1.15-.1,3.5-.15,5.41-.1,9.15,5.79.31,8.7.51,14.51.85.02,1.87.03,2.78.04,4.65-7.75-.45-11.62-.67-19.31-1.09Zm-.04,9.41c.03-1.86.05-2.78.06-4.67,1.92.11,2.89.14,4.81.25-.01,1.89-.03,2.8-.06,4.66-1.93-.1-2.89-.13-4.81-.24Zm4.77,4.94c0-1.93.01-2.85.04-4.7,5.79.29,8.69.46,14.51.74-.02,1.81-.03,2.7-.03,4.63-5.82-.24-8.73-.39-14.52-.67Zm14.55-3.97c.04-3.62.06-5.56.03-9.29,1.94.11,2.9.17,4.84.27.03,3.73,0,5.66-.03,9.24-1.94-.08-2.91-.13-4.85-.22Z"/>
              <path class="cls-4" d="m498.63,400.54c-.03-5.6-.05-8.54.01-13.77,1.93.09,2.9.13,4.84.19-.04,5.22-.03,8.16,0,13.76-1.94-.06-2.9-.1-4.84-.18Zm4.85-13.58c.01-1.74.02-2.6.02-4.52,5.79.19,8.68.23,14.46.06,0,1.92,0,2.78,0,4.51-5.78.18-8.68.14-14.48-.05Zm0,18.47c0-1.83,0-2.84,0-4.71,5.81.18,8.71.21,14.49.03,0,1.86,0,2.89,0,4.7-5.78.18-8.68.14-14.49-.02Zm14.49-4.67c0-5.59,0-8.54,0-13.74,1.93-.06,2.89-.12,4.81-.2,0,5.19,0,8.15,0,13.74-1.92.09-2.89.15-4.81.21Z"/>
              <path class="cls-4" d="m546.38,408.14c0-8.56,0-14.41,0-22.32,1.92-.1,2.88-.16,4.8-.28,0,7.73,0,13.62,0,22.2-1.92.17-2.88.25-4.8.39Zm4.8-22.6c0-1.54,0-2.29,0-4.2,5.76-.29,8.63-.48,14.37-1.13,0,1.91,0,2.61,0,4.06-5.74.67-8.62.9-14.37,1.27Zm0,26.69c0-1.92,0-2.77,0-4.48,5.75-.5,8.63-.8,14.37-1.52,0,1.73,0,2.58,0,4.5-5.74.72-8.62,1.01-14.37,1.51Zm14.37-24.17c0-1.68,0-2.33,0-3.78,1.91-.22,2.87-.35,4.78-.62v3.76c-1.91.28-2.87.4-4.78.64Zm0,18.17c0-1.73,0-2.55,0-4.37,1.91-.24,2.87-.37,4.78-.64v4.38c-1.91.27-2.87.4-4.78.64Z"/>
            </g>
            <g>
              <path class="cls-12" d="m421.4,407.59c0-1.92,0-2.88,0-4.8,1.91.27,2.87.41,4.78.68,0-7.67,0-11.52,0-19.21-1.91-.28-2.86-.42-4.77-.69,0-1.92,0-2.88,0-4.8,1.91.27,2.87.42,4.78.71,0-1.91,0-2.87,0-4.8,1.91.3,2.87.45,4.78.76-.04,9.57,0,19.14-.02,28.72,1.91.27,2.86.41,4.77.67,0,1.91-.01,2.86,0,4.79-5.71-.78-8.57-1.2-14.31-2.01Z"/>
              <path class="cls-10" d="m440.48,405.46c.05-9.5-.06-14.44.03-23.75,1.91.3,2.87.44,4.78.73-.08,5.52-.05,8.43-.02,14.12,1.91.25,2.86.37,4.78.6.01,1.89.02,2.86.01,4.76-1.91-.23-2.87-.35-4.78-.59,0,1.91-.02,2.85-.03,4.74-1.91-.24-2.86-.36-4.77-.62Zm4.81-23.02c.02-1.84.04-2.76.04-4.68,5.75.9,8.63,1.34,14.39,1.98,0,1.91-.03,2.79-.07,4.57-5.75-.61-8.62-1.01-14.36-1.87Zm-.06,28.39c0-1.92,0-2.87.02-4.76,5.72.72,8.58,1.04,14.33,1.55-.02,1.87-.04,2.8-.03,4.72-5.74-.5-8.6-.82-14.31-1.51Zm4.82-13.67c-.01-1.89-.03-2.82-.04-4.71,1.91.24,2.86.35,4.77.57.02,1.88.03,2.81.05,4.69-1.91-.21-2.87-.32-4.78-.55Zm9.53,10.46c.07-5.61.04-8.48-.02-14.11-1.91-.18-2.87-.28-4.78-.5-.02-1.88-.03-2.88,0-4.73,1.91.22,2.87.32,4.78.51.02-1.85.05-2.71.1-4.49,1.92.2,2.88.29,4.8.45-.24,8.82.05,13.93-.08,23.25-1.92-.14-2.88-.22-4.79-.39Z"/>
              <path class="cls-10" d="m469.21,398.92c-.09-7.48.11-10.67.13-18.35,9.62.56,14.45.86,24.09,1.4,0,1.92-.02,2.78-.05,4.53-7.74-.43-11.61-.73-19.32-1.15-.1,3.5-.15,5.41-.1,9.15,5.79.31,8.7.51,14.51.85.02,1.87.03,2.78.04,4.65-7.75-.45-11.62-.67-19.31-1.09Zm-.04,9.41c.03-1.86.05-2.78.06-4.67,1.92.11,2.89.14,4.81.25-.01,1.89-.03,2.8-.06,4.66-1.93-.1-2.89-.13-4.81-.24Zm4.77,4.94c0-1.93.01-2.85.04-4.7,5.79.29,8.69.46,14.51.74-.02,1.81-.03,2.7-.03,4.63-5.82-.24-8.73-.39-14.52-.67Zm14.55-3.97c.04-3.62.06-5.56.03-9.29,1.94.11,2.9.17,4.84.27.03,3.73,0,5.66-.03,9.24-1.94-.08-2.91-.13-4.85-.22Z"/>
              <path class="cls-10" d="m498.63,400.54c-.03-5.6-.05-8.54.01-13.77,1.93.09,2.9.13,4.84.19-.04,5.22-.03,8.16,0,13.76-1.94-.06-2.9-.1-4.84-.18Zm4.85-13.58c.01-1.74.02-2.6.02-4.52,5.79.19,8.68.23,14.46.06,0,1.92,0,2.78,0,4.51-5.78.18-8.68.14-14.48-.05Zm0,18.47c0-1.83,0-2.84,0-4.71,5.81.18,8.71.21,14.49.03,0,1.86,0,2.89,0,4.7-5.78.18-8.68.14-14.49-.02Zm14.49-4.67c0-5.59,0-8.54,0-13.74,1.93-.06,2.89-.12,4.81-.2,0,5.19,0,8.15,0,13.74-1.92.09-2.89.15-4.81.21Z"/>
              <path class="cls-10" d="m546.38,408.14c0-8.56,0-14.41,0-22.32,1.92-.1,2.88-.16,4.8-.28,0,7.73,0,13.62,0,22.2-1.92.17-2.88.25-4.8.39Zm4.8-22.6c0-1.54,0-2.29,0-4.2,5.76-.29,8.63-.48,14.37-1.13,0,1.91,0,2.61,0,4.06-5.74.67-8.62.9-14.37,1.27Zm0,26.69c0-1.92,0-2.77,0-4.48,5.75-.5,8.63-.8,14.37-1.52,0,1.73,0,2.58,0,4.5-5.74.72-8.62,1.01-14.37,1.51Zm14.37-24.17c0-1.68,0-2.33,0-3.78,1.91-.22,2.87-.35,4.78-.62v3.76c-1.91.28-2.87.4-4.78.64Zm0,18.17c0-1.73,0-2.55,0-4.37,1.91-.24,2.87-.37,4.78-.64v4.38c-1.91.27-2.87.4-4.78.64Z"/>
            </g>
          </g>
          <path class="cls-29" d="m761.65,761.36c-267.32,82.89-444.34.34-444.34.34,27.07-27.66,0-52.14,0-52.14,54.9,19.83,135.02,35.67,218.94,35.67,91.35,0,169.81-12.33,225.41-35.34-25.15,26.81,0,51.47,0,51.47Z"/>
        </g>
      </g>
    </g>
  </g>
</svg>