<?xml version="1.0" encoding="UTF-8"?>
<svg xmlns="http://www.w3.org/2000/svg" xmlns:xlink="http://www.w3.org/1999/xlink" viewBox="0 0 1080 1080">
  <defs>
    <style>
      .cls-1 {
        fill: url(#Degradado_sin_nombre_12);
      }

      .cls-1, .cls-2, .cls-3, .cls-4, .cls-5, .cls-6, .cls-7, .cls-8, .cls-9, .cls-10, .cls-11, .cls-12, .cls-13, .cls-14, .cls-15, .cls-16, .cls-17, .cls-18, .cls-19, .cls-20, .cls-21, .cls-22 {
        stroke-width: 0px;
      }

      .cls-23 {
        fill: #3d3d3d;
      }

      .cls-23, .cls-24, .cls-25, .cls-26, .cls-27, .cls-28, .cls-29 {
        stroke: #000;
      }

      .cls-23, .cls-24, .cls-25, .cls-26, .cls-27, .cls-29 {
        stroke-linecap: round;
        stroke-linejoin: round;
      }

      .cls-23, .cls-25, .cls-26, .cls-27, .cls-29 {
        stroke-width: 18px;
      }

      .cls-2, .cls-26 {
        fill: #676767;
      }

      .cls-24 {
        stroke-width: 5px;
      }

      .cls-24, .cls-7, .cls-28 {
        fill: none;
      }

      .cls-3 {
        fill: #a5a19d;
      }

      .cls-3, .cls-6 {
        opacity: .47;
      }

      .cls-30 {
        isolation: isolate;
      }

      .cls-4 {
        fill: #0f0f0f;
      }

      .cls-5 {
        fill: #1a1a1a;
      }

      .cls-25 {
        fill: #c5c5c5;
      }

      .cls-6 {
        fill: #c9c5c5;
      }

      .cls-8 {
        opacity: .32;
      }

      .cls-8, .cls-10, .cls-12, .cls-14, .cls-19 {
        fill: #fff;
      }

      .cls-8, .cls-10, .cls-14, .cls-19 {
        mix-blend-mode: color-dodge;
      }

      .cls-9, .cls-27 {
        fill: #dadada;
      }

      .cls-10 {
        opacity: .17;
      }

      .cls-11 {
        fill: #ede8e8;
        opacity: .74;
      }

      .cls-13 {
        fill: #fffefd;
      }

      .cls-14 {
        opacity: .58;
      }

      .cls-31 {
        opacity: .96;
      }

      .cls-15 {
        fill: #444443;
      }

      .cls-28 {
        stroke-miterlimit: 10;
        stroke-width: 7px;
      }

      .cls-16 {
        fill: #bfbbb8;
      }

      .cls-17 {
        fill: #dbdbdb;
      }

      .cls-18 {
        fill: #f7efe8;
      }

      .cls-19 {
        opacity: .42;
      }

      .cls-20 {
        fill: #dddcdb;
      }

      .cls-21 {
        fill: #383838;
      }

      .cls-22 {
        fill: #9b4200;
      }

      .cls-29 {
        fill: #f3f2f0;
      }
    </style>
    <linearGradient id="Degradado_sin_nombre_12" data-name="Degradado sin nombre 12" x1="68.2" y1="548.74" x2="1010.68" y2="548.74" gradientUnits="userSpaceOnUse">
      <stop offset="0" stop-color="#37e1d6"/>
      <stop offset="1" stop-color="#05e5a3"/>
    </linearGradient>
  </defs>
  <g class="cls-30">
    <g id="Capa_3" data-name="Capa 3">
      <circle class="cls-1" cx="539.44" cy="548.74" r="471.24"/>
      <polyline class="cls-19" points="730.55 155.17 321.85 563.87 321.85 602.88 771.27 153.46"/>
      <polyline class="cls-10" points="1010.34 393.19 601.64 801.89 601.64 840.91 1051.06 391.49"/>
      <polyline class="cls-14" points="239.36 911.11 752.97 397.5 752.97 429.34 255.73 926.58"/>
      <polyline class="cls-14" points="318.58 693.05 606.92 404.06 606.92 421.98 327.77 701.76"/>
      <polyline class="cls-14" points="151.35 832.2 439.69 543.21 439.69 561.13 160.54 840.91"/>
      <polyline class="cls-8" points="659.09 549.6 912.06 296.63 920.56 319.87 661.5 578.93"/>
      <path class="cls-27" d="m1011.74,544.89c0,63.62-12.47,125.32-37.03,183.43-23.73,56.11-57.71,106.51-100.99,149.78-43.27,43.28-93.67,77.26-149.78,101-29.44,12.45-59.81,21.79-90.88,27.97-1.25.25-2.5.49-3.74.73-5.51.43-10.34-3.93-10.34-9.6v-243.61l14.09-5.53v243.56c207.86-42.9,364.6-227.35,364.6-447.74,0-252.08-205.07-457.15-457.14-457.15S83.38,292.82,83.38,544.89c0,219.88,156.03,404,363.18,447.44v-235.89l14.09-2.56v243.33c0,5.8-4.73,10.32-10.29,10.32-.01.01-.02,0-.02,0-1.26-.23-2.52-.48-3.77-.74-30.58-6.19-60.48-15.42-89.46-27.69-56.11-23.73-106.51-57.71-149.79-101-43.27-43.27-77.25-93.67-100.98-149.78-24.57-58.1-37.03-119.81-37.03-183.43s12.47-125.32,37.03-183.43c23.73-56.11,57.71-106.51,100.98-149.79,43.28-43.27,93.68-77.25,149.79-100.99,58.1-24.57,119.81-37.04,183.42-37.04s125.32,12.47,183.42,37.04c56.11,23.73,106.51,57.71,149.78,100.99,43.28,43.28,77.26,93.68,100.99,149.79,24.57,58.1,37.03,119.81,37.03,183.43Z"/>
      <path class="cls-9" d="m458.53,963.8c-.55,0-1.12-.05-1.69-.16l-1.7-.32v-.19c1.13.23,2.26.46,3.38.67Z"/>
      <path class="cls-9" d="m625.26,1018.07v.11l-2.72.49c-.34.06-.68.11-1.03.13,1.25-.24,2.5-.48,3.74-.73Z"/>
      <g>
        <g>
          <path class="cls-25" d="m678.66,362.38c0,17.88-61.96,32.38-138.41,32.38s-137.37-14.26-138.37-31.94c-.03-.15-.03-.29-.03-.44,0-17.88,61.96-32.38,138.4-32.38,52.77,0,98.63,6.9,121.99,17.08,9.02,3.91,14.68,8.32,16.07,13.01.23.76.35,1.52.35,2.29Z"/>
          <path class="cls-25" d="m677.23,675.03c0,6.7,2.95,12.7,7.63,16.79v29.25c.07.53.07,0,.07.53,0,23.59-68.97,43.32-147.58,43.32s-138.35-17.94-142.13-40.51c-.13-.73-.19-1.46-.19-2.19v-30.19c4.85-4.07,7.91-10.19,7.91-17.01s-3.07-12.93-7.91-17.01v-15.6h.28c-.12-37.69-.58-194,.04-236.94.32-22.2,3.33-35.15,6.52-42.67.99,17.68,62.56,31.94,138.37,31.94s138.41-14.5,138.41-32.38c0-.77-.12-1.53-.35-2.29,7.71,10.8,6.48,21.94,6.48,21.94v260.4h.07v15.82c-4.69,4.09-7.63,10.09-7.63,16.79Z"/>
          <path class="cls-29" d="m641.54,362.38c0,.32-.02.63-.09.93-2.11,12.72-47.33,22.88-102.82,22.88s-100.26-10.06-102.79-22.7c0,0,0-.01-.01-.02-.08-.36-.11-.73-.11-1.1,0-13.15,46.08-23.81,102.91-23.81s102.91,10.66,102.91,23.81Z"/>
          <path class="cls-26" d="m684.87,691.82c-174.36,54.07-289.83.22-289.83.22,17.65-18.04,0-34.01,0-34.01,35.81,12.93,88.06,23.27,142.8,23.27,59.59,0,110.76-8.04,147.02-23.05-16.4,17.48,0,33.57,0,33.57Z"/>
          <path class="cls-23" d="m641.54,362.38c0,.32-.02.63-.09.93-10.99-23.94-101.19-23.71-101.19-23.71-98.71,1.65-104.41,23.9-104.41,23.9,0,0,0-.01-.01-.02-.08-.36-.11-.73-.11-1.1,0-13.15,46.08-23.81,102.91-23.81s102.91,10.66,102.91,23.81Z"/>
        </g>
        <path class="cls-15" d="m678.66,362.38c0,17.88-61.96,32.38-138.41,32.38s-137.37-14.26-138.37-31.94c-.03-.15-.03-.29-.03-.44,0-17.88,61.96-32.38,138.4-32.38,52.77,0,98.63,6.9,121.99,17.08,9.02,3.91,14.68,8.32,16.07,13.01.23.76.35,1.52.35,2.29Z"/>
        <path class="cls-21" d="m677.2,675.03c0,6.7,2.95,12.7,7.63,16.79v29.25c.07.53.07,0,.07.53,0,23.59-68.97,43.32-147.58,43.32s-138.35-17.94-142.13-40.51c-.13-.73-.19-1.46-.19-2.19v-30.19c4.85-4.07,7.91-10.19,7.91-17.01s-3.07-12.93-7.91-17.01v-15.6h.28c-.12-37.69-.58-194,.04-236.94.32-22.2,3.33-35.15,6.52-42.67.99,17.68,62.56,31.94,138.37,31.94s138.41-14.5,138.41-32.38c0-.77-.12-1.53-.35-2.29,7.71,10.8,6.48,21.94,6.48,21.94v260.4h.07v15.82c-4.69,4.09-7.63,10.09-7.63,16.79Z"/>
        <path class="cls-20" d="m641.54,362.38c0,.32-.02.63-.09.93-2.11,12.72-47.33,22.88-102.82,22.88-13.32,0-26.04-.58-37.72-1.65h-.01c-36.74-3.35-63.13-11.46-65.06-21.05,0,0,0-.01-.01-.02-.08-.36-.11-.73-.11-1.1,0-13.15,46.08-23.81,102.91-23.81,19.79,0,38.27,1.29,53.95,3.53,29.38,4.19,48.96,11.7,48.96,20.28Z"/>
        <path class="cls-3" d="m500.91,384.55c-36.74-3.35-63.13-11.46-65.06-21.05,0,0,0-.01-.01-.02-.08-.36-.11-.73-.11-1.1,0-13.15,46.08-23.81,102.91-23.81,19.79,0,38.27,1.29,53.95,3.53l1.56,1.39s-144.23,20.66-93.24,41.06Z"/>
        <path class="cls-2" d="m684.87,691.82c-174.36,54.07-289.83.22-289.83.22,17.65-18.04,0-34.01,0-34.01,35.81,12.93,88.06,23.27,142.8,23.27,59.59,0,110.76-8.04,147.02-23.05-16.4,17.48,0,33.57,0,33.57Z"/>
        <path class="cls-4" d="m641.54,362.38c0,.32-.02.63-.09.93-10.99-23.94-101.19-23.71-101.19-23.71-98.71,1.65-104.41,23.9-104.41,23.9,0,0,0-.01-.01-.02-.08-.36-.11-.73-.11-1.1,0-13.15,46.08-23.81,102.91-23.81s102.91,10.66,102.91,23.81Z"/>
        <path class="cls-11" d="m456.57,376.93c-1.06.91-2.3,1.62-3.69,2.08-.21.07-6.14,2.14-10.37,6.47-2.39,2.43-4.23,5.56-4.23,9.46v275.6c-7.68-1.7-15.03-3.56-21.99-5.53v-270.07c0-6.2,1.55-11.6,4.04-16.22,3.76-6.99,9.63-12.22,15.43-15.79.01.25.04.49.1.74.01.01.01.02.01.02.99,4.97,8.56,9.53,20.72,13.25Z"/>
        <path class="cls-6" d="m429.41,668.46s12.25,2.87,22.17,4.65c9.92,1.77,14.66,32.11,4.47,36.21l-24.01-5.16s7.03-14.75-2.63-35.69Z"/>
        <path class="cls-28" d="m641.54,362.38c0,.32-.02.63-.09.93-2.11,12.72-47.33,22.88-102.82,22.88-13.32,0-26.04-.58-37.72-1.65h-.01c-36.74-3.35-63.13-11.46-65.06-21.05,0,0,0-.01-.01-.02-.08-.36-.11-.73-.11-1.1,0-13.15,46.08-23.81,102.91-23.81,19.79,0,38.27,1.29,53.95,3.53,29.38,4.19,48.96,11.7,48.96,20.28Z"/>
        <path class="cls-11" d="m417.91,700.25v32.94s-.32,12.57,6.67,15.08c7,2.52,16.04,5.6,24.74,7.5,0,0-2.07-7.28-.79-18.28v-29.47l-30.62-7.78Z"/>
        <g>
          <g>
            <path class="cls-12" d="m462.94,428.1c0-8.77,0-15.78,0-24.56,4.99.71,7.48,1.16,12.46,2.05,0,1.25,0,2.08,0,3.77-3.74-.64-5.61-.97-9.35-1.55,0,3.43,0,5.69,0,8.2,3.74.56,5.62.86,9.37,1.45,0,1.25,0,1.88,0,3.14-3.75-.59-5.62-.89-9.37-1.45,0,3.76,0,5.67,0,9.4-1.25-.18-1.87-.28-3.12-.46Zm12.49-10.63c0-2.51-.01-4.71-.02-8.1,1.25.21,1.87.32,3.12.54.02,3.37.03,5.55.03,8.05-1.25-.19-1.88-.29-3.13-.49Z"/>
            <path class="cls-12" d="m481.67,418.44c0-2.51-.02-4.66-.04-8,1.25.21,1.87.31,3.12.52.03,3.32.05,5.45.05,7.95-1.25-.18-1.88-.28-3.13-.47Zm0,9.42c0-1.25,0-1.88,0-3.14,1.25.19,1.88.29,3.13.47,0,1.26,0,1.89,0,3.14-1.25-.19-1.88-.28-3.13-.47Zm3.08-16.9c-.01-1.66-.02-2.47-.02-3.71,3.74.63,5.61.94,9.35,1.43,0,1.23,0,2.03.03,3.66-3.75-.48-5.62-.77-9.36-1.38Zm.05,11.09c0-1.26,0-1.89,0-3.14,3.76.55,5.63.82,9.39,1.26,0,1.25,0,1.88,0,3.14-3.76-.45-5.64-.71-9.39-1.27Zm0,9.22c0-1.12,0-1.68,0-2.94,3.76.56,5.63.82,9.39,1.28,0,1.24,0,1.76,0,2.8-3.76-.41-5.64-.64-9.4-1.14Zm9.36-14.76c-.02-1.63-.03-2.54-.05-4.17,1.25.16,1.87.24,3.13.37.02,1.63.04,2.53.06,4.16-1.25-.13-1.88-.21-3.13-.36Zm.03,13.1c0-2.51,0-3.77,0-6.29,1.25.15,1.88.22,3.13.35,0,2.52,0,3.79,0,6.3-1.25-.13-1.88-.21-3.13-.36Z"/>
            <path class="cls-12" d="m500.47,430.27c0-7.52-.13-13.51-.13-20.9,1.25.11,1.88.16,3.13.24,0,7.43.13,13.39.14,20.92-1.25-.09-1.88-.14-3.14-.26Zm3.14,2.98c0-.98,0-1.49,0-2.73,3.76.28,5.65.33,9.42.48,0,1.26,0,1.75,0,2.72-3.77-.15-5.65-.21-9.42-.48Zm9.41-2.24c0-7.58-.17-13.35-.02-21,1.27.07,1.9.1,3.16.19-.19,7.69,0,13.34,0,20.94-1.26-.04-1.88-.07-3.14-.12Z"/>
            <path class="cls-12" d="m525.59,431.39c0-6.3.05-8.87-.08-16.83,1.24.09,1.86.13,3.1.22.17,7.87.12,10.38.12,16.65-1.26-.02-1.89-.03-3.14-.05Zm3.02-16.6c-.03-1.57-.05-2.35-.02-3.62,3.69.3,5.52.45,9.21.65,0,1.25.02,2,.09,3.52-3.71-.16-5.56-.29-9.28-.55Zm.12,19.35c0-.95,0-1.44,0-2.69,3.77.05,5.66.05,9.43.02,0,1.25,0,1.73,0,2.67-3.77.04-5.66.04-9.43,0Zm9.43-2.67c0-2.49,0-3.51,0-5.79-2.51-.03-3.77-.05-6.29-.12,0-1.17,0-1.76,0-3.01,3.77.14,5.66.19,9.43.22,0,3.73,0,4.95,0,8.67-1.26.02-1.89.03-3.14.04Z"/>
            <path class="cls-12" d="m544.45,422.75c0-1.24-.04-1.98-.13-3.47,5,0,7.51-.15,12.54-.38.1,1.46.15,2.19.15,3.44-5.02.23-7.53.38-12.56.4Zm0,8.61c0-1.24,0-1.81,0-2.92,1.26-.02,1.89-.04,3.14-.08,0,1.11,0,1.67,0,2.91-1.26.04-1.88.06-3.14.09Zm3.14,2.56c0-.93,0-1.4,0-2.65,3.77-.12,5.65-.22,9.42-.41,0-1.26,0-1.81,0-2.91-3.76.18-5.65.29-9.42.4,0-1.11,0-1.63,0-2.74,3.77-.08,5.65-.2,9.42-.37,0-1.1,0-1.65,0-2.91,1.25-.06,1.88-.08,3.14-.14,0,5.03,0,7.38,0,11.17-5.02.22-7.53.38-12.55.54Z"/>
            <path class="cls-12" d="m563.28,433.24c0-4.84.31-7.38-.14-14.62,5.03-.23,7.55-.33,12.58-.63.06,1.41.1,2.14.1,3.39-3.76.24-5.63.34-9.39.52,0,5.03,0,7.24,0,11.19-1.25.06-1.88.08-3.13.14Zm12.53-.62c0-4.25,0-6.23,0-11.24,1.25-.08,1.88-.12,3.13-.21,0,5.01,0,6.9,0,11.25-1.25.08-1.88.12-3.13.2Z"/>
            <path class="cls-12" d="m582.06,426.41c0-2.13,0-2.97,0-5.47,1.25-.1,1.88-.15,3.13-.27,0,2.5,0,3.34,0,5.45-1.25.12-1.88.18-3.13.28Zm0,11.5c0-1.27,0-1.83,0-2.95,5-.28,7.5-.46,12.49-1.05,0,1.19,0,1.78,0,3.05-4.99.58-7.49.73-12.5.94Zm12.5-3.99c0-2.37,0-3.47,0-6-3.74.49-5.62.69-9.37,1.06,0-1.25,0-1.79,0-2.85,3.75-.36,5.62-.56,9.37-1.05,0-2.1,0-2.91,0-5.42-3.74.48-5.62.67-9.37,1.01,0-1.25-.02-1.96-.05-3.33,5.02-.41,7.53-.65,12.54-1.3,0,7.76,0,10.29,0,17.46-1.25.17-1.87.25-3.12.4Z"/>
          </g>
          <g>
            <path class="cls-13" d="m462.94,428.1c0-8.77,0-15.78,0-24.56,4.99.71,7.48,1.16,12.46,2.05,0,1.25,0,2.08,0,3.77-3.74-.64-5.61-.97-9.35-1.55,0,3.43,0,5.69,0,8.2,3.74.56,5.62.86,9.37,1.45,0,1.25,0,1.88,0,3.14-3.75-.59-5.62-.89-9.37-1.45,0,3.76,0,5.67,0,9.4-1.25-.18-1.87-.28-3.12-.46Zm12.49-10.63c0-2.51-.01-4.71-.02-8.1,1.25.21,1.87.32,3.12.54.02,3.37.03,5.55.03,8.05-1.25-.19-1.88-.29-3.13-.49Z"/>
            <path class="cls-12" d="m481.67,418.44c0-2.51-.02-4.66-.04-8,1.25.21,1.87.31,3.12.52.03,3.32.05,5.45.05,7.95-1.25-.18-1.88-.28-3.13-.47Zm0,9.42c0-1.25,0-1.88,0-3.14,1.25.19,1.88.29,3.13.47,0,1.26,0,1.89,0,3.14-1.25-.19-1.88-.28-3.13-.47Zm3.08-16.9c-.01-1.66-.02-2.47-.02-3.71,3.74.63,5.61.94,9.35,1.43,0,1.23,0,2.03.03,3.66-3.75-.48-5.62-.77-9.36-1.38Zm.05,11.09c0-1.26,0-1.89,0-3.14,3.76.55,5.63.82,9.39,1.26,0,1.25,0,1.88,0,3.14-3.76-.45-5.64-.71-9.39-1.27Zm0,9.22c0-1.12,0-1.68,0-2.94,3.76.56,5.63.82,9.39,1.28,0,1.24,0,1.76,0,2.8-3.76-.41-5.64-.64-9.4-1.14Zm9.36-14.76c-.02-1.63-.03-2.54-.05-4.17,1.25.16,1.87.24,3.13.37.02,1.63.04,2.53.06,4.16-1.25-.13-1.88-.21-3.13-.36Zm.03,13.1c0-2.51,0-3.77,0-6.29,1.25.15,1.88.22,3.13.35,0,2.52,0,3.79,0,6.3-1.25-.13-1.88-.21-3.13-.36Z"/>
            <path class="cls-12" d="m500.47,430.27c0-7.52-.13-13.51-.13-20.9,1.25.11,1.88.16,3.13.24,0,7.43.13,13.39.14,20.92-1.25-.09-1.88-.14-3.14-.26Zm3.14,2.98c0-.98,0-1.49,0-2.73,3.76.28,5.65.33,9.42.48,0,1.26,0,1.75,0,2.72-3.77-.15-5.65-.21-9.42-.48Zm9.41-2.24c0-7.58-.17-13.35-.02-21,1.27.07,1.9.1,3.16.19-.19,7.69,0,13.34,0,20.94-1.26-.04-1.88-.07-3.14-.12Z"/>
            <path class="cls-12" d="m525.59,431.39c0-6.3.05-8.87-.08-16.83,1.24.09,1.86.13,3.1.22.17,7.87.12,10.38.12,16.65-1.26-.02-1.89-.03-3.14-.05Zm3.02-16.6c-.03-1.57-.05-2.35-.02-3.62,3.69.3,5.52.45,9.21.65,0,1.25.02,2,.09,3.52-3.71-.16-5.56-.29-9.28-.55Zm.12,19.35c0-.95,0-1.44,0-2.69,3.77.05,5.66.05,9.43.02,0,1.25,0,1.73,0,2.67-3.77.04-5.66.04-9.43,0Zm9.43-2.67c0-2.49,0-3.51,0-5.79-2.51-.03-3.77-.05-6.29-.12,0-1.17,0-1.76,0-3.01,3.77.14,5.66.19,9.43.22,0,3.73,0,4.95,0,8.67-1.26.02-1.89.03-3.14.04Z"/>
            <path class="cls-12" d="m544.45,422.75c0-1.24-.04-1.98-.13-3.47,5,0,7.51-.15,12.54-.38.1,1.46.15,2.19.15,3.44-5.02.23-7.53.38-12.56.4Zm0,8.61c0-1.24,0-1.81,0-2.92,1.26-.02,1.89-.04,3.14-.08,0,1.11,0,1.67,0,2.91-1.26.04-1.88.06-3.14.09Zm3.14,2.56c0-.93,0-1.4,0-2.65,3.77-.12,5.65-.22,9.42-.41,0-1.26,0-1.81,0-2.91-3.76.18-5.65.29-9.42.4,0-1.11,0-1.63,0-2.74,3.77-.08,5.65-.2,9.42-.37,0-1.1,0-1.65,0-2.91,1.25-.06,1.88-.08,3.14-.14,0,5.03,0,7.38,0,11.17-5.02.22-7.53.38-12.55.54Z"/>
            <path class="cls-13" d="m563.28,433.24c0-4.84.31-7.38-.14-14.62,5.03-.23,7.55-.33,12.58-.63.06,1.41.1,2.14.1,3.39-3.76.24-5.63.34-9.39.52,0,5.03,0,7.24,0,11.19-1.25.06-1.88.08-3.13.14Zm12.53-.62c0-4.25,0-6.23,0-11.24,1.25-.08,1.88-.12,3.13-.21,0,5.01,0,6.9,0,11.25-1.25.08-1.88.12-3.13.2Z"/>
            <path class="cls-12" d="m582.06,426.41c0-2.13,0-2.97,0-5.47,1.25-.1,1.88-.15,3.13-.27,0,2.5,0,3.34,0,5.45-1.25.12-1.88.18-3.13.28Zm0,11.5c0-1.27,0-1.83,0-2.95,5-.28,7.5-.46,12.49-1.05,0,1.19,0,1.78,0,3.05-4.99.58-7.49.73-12.5.94Zm12.5-3.99c0-2.37,0-3.47,0-6-3.74.49-5.62.69-9.37,1.06,0-1.25,0-1.79,0-2.85,3.75-.36,5.62-.56,9.37-1.05,0-2.1,0-2.91,0-5.42-3.74.48-5.62.67-9.37,1.01,0-1.25-.02-1.96-.05-3.33,5.02-.41,7.53-.65,12.54-1.3,0,7.76,0,10.29,0,17.46-1.25.17-1.87.25-3.12.4Z"/>
          </g>
        </g>
        <path class="cls-24" d="m684.87,691.82c-174.36,54.07-289.83.22-289.83.22,17.65-18.04,0-34.01,0-34.01,35.81,12.93,88.06,23.27,142.8,23.27,59.59,0,110.76-8.04,147.02-23.05-16.4,17.48,0,33.57,0,33.57Z"/>
        <g>
          <g>
            <path class="cls-22" d="m472.3,495.97c0-3.76,0-5.64,0-9.4-3.75-.48-5.62-.73-9.36-1.26,0-5.01,0-7.52,0-12.53,1.25.18,1.87.26,3.12.44,0,3.76,0,5.64,0,9.4,2.5.34,3.74.51,6.24.83,0-3.76,0-5.64,0-9.4,1.25.16,1.87.24,3.12.39,0,3.76,0,5.64,0,9.4,1.25.15,1.87.23,3.12.37v3.13c-1.25-.15-1.87-.22-3.12-.37,0,3.76,0,5.64,0,9.4-1.25-.15-1.87-.23-3.12-.39Z"/>
            <path class="cls-22" d="m481.67,493.96c0-6.27,0-9.4,0-15.67,1.25.14,1.88.21,3.13.34,0,3.76,0,5.64,0,9.4,1.25.13,1.88.2,3.13.33,0,1.25,0,1.88,0,3.13-1.25-.13-1.88-.19-3.13-.33,0,1.25,0,1.88,0,3.13-1.25-.13-1.88-.2-3.13-.34Zm3.13-15.32c0-1.25,0-1.88,0-3.13,3.75.4,5.63.59,9.39.93,0,1.25,0,1.88,0,3.13-3.76-.35-5.64-.53-9.39-.93Zm0,18.8c0-1.25,0-1.88,0-3.13,3.75.4,5.63.59,9.39.93,0,1.25,0,1.88,0,3.13-3.76-.35-5.64-.53-9.39-.93Zm3.13-9.07v-3.13c1.25.13,1.88.19,3.13.31v3.13c-1.25-.12-1.88-.18-3.13-.31Zm6.26,6.87c0-3.76,0-5.64,0-9.4-1.25-.12-1.88-.17-3.13-.3,0-1.25,0-1.88,0-3.13,1.25.12,1.88.18,3.13.3,0-1.25,0-1.88,0-3.13,1.25.12,1.88.17,3.13.28,0,6.27,0,9.4,0,15.67-1.25-.11-1.88-.17-3.13-.28Z"/>
            <path class="cls-22" d="m500.45,495.78c0-6.27,0-9.4,0-15.67,1.25.1,1.88.15,3.13.25,0,3.76,0,5.64,0,9.4,1.25.1,1.88.14,3.14.23,0,1.25,0,1.88,0,3.13-1.25-.09-1.88-.14-3.14-.23,0,1.25,0,1.88,0,3.13-1.25-.1-1.88-.15-3.13-.25Zm3.13-15.42c0-1.25,0-1.88,0-3.13,3.76.29,5.64.42,9.41.65,0,1.25,0,1.88,0,3.13-3.76-.23-5.65-.36-9.41-.65Zm0,18.8c0-1.25,0-1.88,0-3.13,3.76.29,5.64.42,9.41.65,0,1.25,0,1.88,0,3.13-3.76-.23-5.65-.36-9.41-.65Zm3.14-9.17v-3.13c1.25.09,1.88.13,3.14.22v3.13c-1.25-.08-1.88-.13-3.14-.22Zm6.27,6.69c0-3.76,0-5.64,0-9.4-1.25-.08-1.88-.12-3.14-.2,0-1.25,0-1.88,0-3.13,1.25.08,1.88.12,3.14.2,0-1.25,0-1.88,0-3.13,1.25.08,1.88.11,3.14.19,0,6.27,0,9.4,0,15.67-1.25-.07-1.88-.11-3.14-.19Z"/>
            <path class="cls-22" d="m519.27,493.91c0-6.27,0-9.4,0-15.67,1.26.07,1.88.1,3.14.16,0,6.27,0,9.4,0,15.67-1.26-.06-1.88-.09-3.14-.16Zm3.14,3.29c0-1.25,0-1.88,0-3.13,1.26.06,1.88.09,3.14.14,0,1.25,0,1.88,0,3.13-1.26-.05-1.88-.08-3.14-.14Zm3.14,3.27c0-1.25,0-1.88,0-3.13,1.26.05,1.88.08,3.14.12,0,1.25,0,1.88,0,3.13-1.26-.05-1.88-.07-3.14-.12Zm3.14-3.01c0-1.25,0-1.88,0-3.13,1.26.05,1.88.07,3.14.11,0,1.25,0,1.88,0,3.13-1.26-.04-1.88-.06-3.14-.11Zm3.14-3.02c0-6.27,0-9.4,0-15.67,1.26.04,1.88.06,3.14.09,0,6.27,0,9.4,0,15.67-1.26-.03-1.88-.05-3.14-.09Z"/>
            <path class="cls-22" d="m544.39,491.58c0-5.01,0-7.52,0-12.53,6.28.08,9.42.08,15.71,0,0,1.25,0,1.88,0,3.13-5.03.06-7.54.07-12.56.03,0,2.51,0,3.76,0,6.27,3.77.03,5.65.03,9.42,0v3.13c-5.03.04-7.54.03-12.57-.03Zm0,6.27c0-1.25,0-1.88,0-3.13,1.26.02,1.89.02,3.14.03,0,1.25,0,1.88,0,3.13-1.26,0-1.89-.02-3.14-.03Zm3.14,3.17c0-1.25,0-1.88,0-3.13,3.77.03,5.65.03,9.42,0,0,1.25,0,1.88,0,3.13-3.77.03-5.65.03-9.42,0Zm9.42-3.13c0-2.51,0-3.76,0-6.27,1.26,0,1.88-.02,3.14-.03,0,2.51,0,3.76,0,6.27-1.26.02-1.88.02-3.14.03Z"/>
            <path class="cls-22" d="m563.23,488.4c0-2.51,0-3.76,0-6.27,1.26-.02,1.88-.03,3.14-.06,0,2.51,0,3.76,0,6.27-1.26.03-1.88.04-3.14.06Zm0,9.4c0-2.51,0-3.76,0-6.27,1.26-.02,1.88-.03,3.14-.06,0,2.51,0,3.76,0,6.27-1.26.03-1.88.04-3.14.06Zm3.14-15.73c0-1.25,0-1.88,0-3.13,3.77-.08,5.65-.14,9.42-.28,0,1.25,0,1.88,0,3.13-3.77.14-5.65.2-9.42.28Zm0,9.4v-3.13c3.77-.08,5.65-.14,9.42-.28v3.13c-3.77.14-5.65.2-9.42.28Zm0,9.4c0-1.25,0-1.88,0-3.13,3.77-.08,5.65-.14,9.42-.28,0,1.25,0,1.88,0,3.13-3.77.14-5.65.2-9.42.28Zm9.42-12.81c0-2.51,0-3.76,0-6.27,1.26-.05,1.88-.07,3.14-.12,0,2.51,0,3.76,0,6.27-1.26.05-1.88.08-3.14.12Zm0,9.4c0-2.51,0-3.76,0-6.27,1.26-.05,1.88-.07,3.14-.12,0,2.51,0,3.76,0,6.27-1.26.05-1.88.08-3.14.12Z"/>
            <path class="cls-22" d="m582.07,497.19c0-6.27,0-9.4,0-15.67,1.26-.06,1.88-.09,3.14-.16,0,3.76,0,5.64,0,9.4,1.25-.07,1.88-.1,3.14-.17v3.13c-1.25.07-1.88.11-3.14.17v3.13c-1.26.07-1.88.1-3.14.16Zm3.14-15.82c0-1.25,0-1.88,0-3.13,3.77-.2,5.65-.31,9.41-.56,0,1.25,0,1.88,0,3.13-3.76.25-5.65.36-9.41.56Zm0,18.8c0-1.25,0-1.88,0-3.13,3.77-.2,5.65-.31,9.41-.56,0,1.25,0,1.88,0,3.13-3.76.25-5.65.36-9.41.56Zm3.14-9.57v-3.13c1.26-.07,1.88-.11,3.14-.19v3.13c-1.25.08-1.88.12-3.14.19Zm6.27,5.88v-9.4c-1.25.08-1.88.12-3.14.2v-3.13c1.25-.08,1.88-.12,3.14-.2v-3.13c1.25-.08,1.88-.13,3.13-.22,0,6.27,0,9.4,0,15.67-1.25.09-1.88.13-3.13.22Z"/>
            <path class="cls-22" d="m607.16,495.51v-12.53c1.25-.11,1.88-.17,3.13-.28v12.53c-1.25.12-1.88.17-3.13.28Zm3.13,2.85v-3.13c3.76-.35,5.64-.53,9.39-.93v-12.53c1.25-.13,1.88-.2,3.13-.34,0,6.27,0,9.4,0,15.67-5,.56-7.51.82-12.52,1.28Z"/>
            <path class="cls-22" d="m625.94,496.73c0-8.77,0-13.16,0-21.93,6.25-.73,9.37-1.14,15.61-2.02,0,1.25,0,1.88,0,3.13-4.99.71-7.49,1.04-12.48,1.65,0,2.51,0,3.76,0,6.27,3.75-.46,5.62-.7,9.37-1.21v3.13c-3.74.51-5.62.76-9.37,1.21,0,3.76,0,5.64,0,9.4-1.25.15-1.87.23-3.13.37Z"/>
          </g>
          <g>
            <path class="cls-17" d="m472.3,495.97c0-3.76,0-5.64,0-9.4-3.75-.48-5.62-.73-9.36-1.26,0-5.01,0-7.52,0-12.53,1.25.18,1.87.26,3.12.44,0,3.76,0,5.64,0,9.4,2.5.34,3.74.51,6.24.83,0-3.76,0-5.64,0-9.4,1.25.16,1.87.24,3.12.39,0,3.76,0,5.64,0,9.4,1.25.15,1.87.23,3.12.37v3.13c-1.25-.15-1.87-.22-3.12-.37,0,3.76,0,5.64,0,9.4-1.25-.15-1.87-.23-3.12-.39Z"/>
            <path class="cls-17" d="m481.67,493.96c0-6.27,0-9.4,0-15.67,1.25.14,1.88.21,3.13.34,0,3.76,0,5.64,0,9.4,1.25.13,1.88.2,3.13.33,0,1.25,0,1.88,0,3.13-1.25-.13-1.88-.19-3.13-.33,0,1.25,0,1.88,0,3.13-1.25-.13-1.88-.2-3.13-.34Zm3.13-15.32c0-1.25,0-1.88,0-3.13,3.75.4,5.63.59,9.39.93,0,1.25,0,1.88,0,3.13-3.76-.35-5.64-.53-9.39-.93Zm0,18.8c0-1.25,0-1.88,0-3.13,3.75.4,5.63.59,9.39.93,0,1.25,0,1.88,0,3.13-3.76-.35-5.64-.53-9.39-.93Zm3.13-9.07v-3.13c1.25.13,1.88.19,3.13.31v3.13c-1.25-.12-1.88-.18-3.13-.31Zm6.26,6.87c0-3.76,0-5.64,0-9.4-1.25-.12-1.88-.17-3.13-.3,0-1.25,0-1.88,0-3.13,1.25.12,1.88.18,3.13.3,0-1.25,0-1.88,0-3.13,1.25.12,1.88.17,3.13.28,0,6.27,0,9.4,0,15.67-1.25-.11-1.88-.17-3.13-.28Z"/>
            <path class="cls-17" d="m500.45,495.78c0-6.27,0-9.4,0-15.67,1.25.1,1.88.15,3.13.25,0,3.76,0,5.64,0,9.4,1.25.1,1.88.14,3.14.23,0,1.25,0,1.88,0,3.13-1.25-.09-1.88-.14-3.14-.23,0,1.25,0,1.88,0,3.13-1.25-.1-1.88-.15-3.13-.25Zm3.13-15.42c0-1.25,0-1.88,0-3.13,3.76.29,5.64.42,9.41.65,0,1.25,0,1.88,0,3.13-3.76-.23-5.65-.36-9.41-.65Zm0,18.8c0-1.25,0-1.88,0-3.13,3.76.29,5.64.42,9.41.65,0,1.25,0,1.88,0,3.13-3.76-.23-5.65-.36-9.41-.65Zm3.14-9.17v-3.13c1.25.09,1.88.13,3.14.22v3.13c-1.25-.08-1.88-.13-3.14-.22Zm6.27,6.69c0-3.76,0-5.64,0-9.4-1.25-.08-1.88-.12-3.14-.2,0-1.25,0-1.88,0-3.13,1.25.08,1.88.12,3.14.2,0-1.25,0-1.88,0-3.13,1.25.08,1.88.11,3.14.19,0,6.27,0,9.4,0,15.67-1.25-.07-1.88-.11-3.14-.19Z"/>
            <path class="cls-17" d="m519.27,493.91c0-6.27,0-9.4,0-15.67,1.26.07,1.88.1,3.14.16,0,6.27,0,9.4,0,15.67-1.26-.06-1.88-.09-3.14-.16Zm3.14,3.29c0-1.25,0-1.88,0-3.13,1.26.06,1.88.09,3.14.14,0,1.25,0,1.88,0,3.13-1.26-.05-1.88-.08-3.14-.14Zm3.14,3.27c0-1.25,0-1.88,0-3.13,1.26.05,1.88.08,3.14.12,0,1.25,0,1.88,0,3.13-1.26-.05-1.88-.07-3.14-.12Zm3.14-3.01c0-1.25,0-1.88,0-3.13,1.26.05,1.88.07,3.14.11,0,1.25,0,1.88,0,3.13-1.26-.04-1.88-.06-3.14-.11Zm3.14-3.02c0-6.27,0-9.4,0-15.67,1.26.04,1.88.06,3.14.09,0,6.27,0,9.4,0,15.67-1.26-.03-1.88-.05-3.14-.09Z"/>
            <path class="cls-17" d="m544.39,491.58c0-5.01,0-7.52,0-12.53,6.28.08,9.42.08,15.71,0,0,1.25,0,1.88,0,3.13-5.03.06-7.54.07-12.56.03,0,2.51,0,3.76,0,6.27,3.77.03,5.65.03,9.42,0v3.13c-5.03.04-7.54.03-12.57-.03Zm0,6.27c0-1.25,0-1.88,0-3.13,1.26.02,1.89.02,3.14.03,0,1.25,0,1.88,0,3.13-1.26,0-1.89-.02-3.14-.03Zm3.14,3.17c0-1.25,0-1.88,0-3.13,3.77.03,5.65.03,9.42,0,0,1.25,0,1.88,0,3.13-3.77.03-5.65.03-9.42,0Zm9.42-3.13c0-2.51,0-3.76,0-6.27,1.26,0,1.88-.02,3.14-.03,0,2.51,0,3.76,0,6.27-1.26.02-1.88.02-3.14.03Z"/>
            <path class="cls-17" d="m563.23,488.4c0-2.51,0-3.76,0-6.27,1.26-.02,1.88-.03,3.14-.06,0,2.51,0,3.76,0,6.27-1.26.03-1.88.04-3.14.06Zm0,9.4c0-2.51,0-3.76,0-6.27,1.26-.02,1.88-.03,3.14-.06,0,2.51,0,3.76,0,6.27-1.26.03-1.88.04-3.14.06Zm3.14-15.73c0-1.25,0-1.88,0-3.13,3.77-.08,5.65-.14,9.42-.28,0,1.25,0,1.88,0,3.13-3.77.14-5.65.2-9.42.28Zm0,9.4v-3.13c3.77-.08,5.65-.14,9.42-.28v3.13c-3.77.14-5.65.2-9.42.28Zm0,9.4c0-1.25,0-1.88,0-3.13,3.77-.08,5.65-.14,9.42-.28,0,1.25,0,1.88,0,3.13-3.77.14-5.65.2-9.42.28Zm9.42-12.81c0-2.51,0-3.76,0-6.27,1.26-.05,1.88-.07,3.14-.12,0,2.51,0,3.76,0,6.27-1.26.05-1.88.08-3.14.12Zm0,9.4c0-2.51,0-3.76,0-6.27,1.26-.05,1.88-.07,3.14-.12,0,2.51,0,3.76,0,6.27-1.26.05-1.88.08-3.14.12Z"/>
            <path class="cls-17" d="m582.07,497.19c0-6.27,0-9.4,0-15.67,1.26-.06,1.88-.09,3.14-.16,0,3.76,0,5.64,0,9.4,1.25-.07,1.88-.1,3.14-.17v3.13c-1.25.07-1.88.11-3.14.17v3.13c-1.26.07-1.88.1-3.14.16Zm3.14-15.82c0-1.25,0-1.88,0-3.13,3.77-.2,5.65-.31,9.41-.56,0,1.25,0,1.88,0,3.13-3.76.25-5.65.36-9.41.56Zm0,18.8c0-1.25,0-1.88,0-3.13,3.77-.2,5.65-.31,9.41-.56,0,1.25,0,1.88,0,3.13-3.76.25-5.65.36-9.41.56Zm3.14-9.57v-3.13c1.26-.07,1.88-.11,3.14-.19v3.13c-1.25.08-1.88.12-3.14.19Zm6.27,5.88v-9.4c-1.25.08-1.88.12-3.14.2v-3.13c1.25-.08,1.88-.12,3.14-.2v-3.13c1.25-.08,1.88-.13,3.13-.22,0,6.27,0,9.4,0,15.67-1.25.09-1.88.13-3.13.22Z"/>
            <path class="cls-17" d="m607.16,495.51v-12.53c1.25-.11,1.88-.17,3.13-.28v12.53c-1.25.12-1.88.17-3.13.28Zm3.13,2.85v-3.13c3.76-.35,5.64-.53,9.39-.93v-12.53c1.25-.13,1.88-.2,3.13-.34,0,6.27,0,9.4,0,15.67-5,.56-7.51.82-12.52,1.28Z"/>
            <path class="cls-17" d="m625.94,496.73c0-8.77,0-13.16,0-21.93,6.25-.73,9.37-1.14,15.61-2.02,0,1.25,0,1.88,0,3.13-4.99.71-7.49,1.04-12.48,1.65,0,2.51,0,3.76,0,6.27,3.75-.46,5.62-.7,9.37-1.21v3.13c-3.74.51-5.62.76-9.37,1.21,0,3.76,0,5.64,0,9.4-1.25.15-1.87.23-3.13.37Z"/>
          </g>
        </g>
        <g>
          <g>
            <path class="cls-5" d="m462.94,461.07c0-1.25,0-1.88,0-3.13,1.25.18,1.87.27,3.12.45,0-5.01,0-7.51,0-12.53-1.24-.18-1.87-.27-3.11-.45,0-1.25,0-1.88,0-3.13,1.25.18,1.87.27,3.12.46,0-1.25,0-1.87,0-3.13,1.25.19,1.87.29,3.12.49.01,7.56,0,11.24-.01,18.73,1.24.18,1.87.26,3.11.44,0,1.24,0,1.87,0,3.12-3.73-.51-5.59-.78-9.33-1.31Z"/>
            <path class="cls-5" d="m475.38,459.68c.03-6.19-.04-9.42.02-15.49,1.25.19,1.87.29,3.12.48-.05,3.6-.03,5.5-.01,9.21,1.25.16,1.87.24,3.12.39,0,1.23.01,1.87,0,3.11-1.25-.15-1.87-.23-3.12-.39,0,1.24-.01,1.86-.02,3.09-1.24-.16-1.87-.24-3.11-.4Zm3.14-15.01c.02-1.2.03-1.8.03-3.05,3.75.59,5.63.87,9.39,1.29,0,1.25-.02,1.82-.05,2.98-3.75-.4-5.62-.66-9.37-1.22Zm-.04,18.52c0-1.25,0-1.87.01-3.1,3.73.47,5.6.68,9.34,1.01-.01,1.22-.02,1.83-.02,3.08-3.74-.32-5.61-.53-9.33-.99Zm3.14-8.91c0-1.23-.02-1.84-.03-3.07,1.24.16,1.87.23,3.11.37.01,1.23.02,1.83.03,3.06-1.25-.14-1.87-.21-3.12-.36Zm6.22,6.82c.04-3.66.03-5.53-.01-9.2-1.25-.12-1.87-.19-3.12-.33-.01-1.23-.02-1.88,0-3.09,1.25.14,1.87.21,3.12.33.02-1.2.03-1.77.06-2.93,1.25.13,1.88.19,3.13.3-.16,5.75.03,9.09-.05,15.16-1.25-.09-1.88-.14-3.12-.25Z"/>
            <path class="cls-5" d="m494.12,455.41c-.06-4.88.07-6.96.08-11.97,6.28.36,9.42.56,15.71.92,0,1.25-.01,1.81-.03,2.95-5.05-.28-7.57-.48-12.6-.75-.07,2.29-.1,3.53-.07,5.97,3.77.2,5.67.33,9.47.56.01,1.22.02,1.81.03,3.03-5.05-.3-7.58-.44-12.6-.71Zm-.03,6.14c.02-1.21.03-1.81.04-3.04,1.25.07,1.88.09,3.14.16,0,1.23-.02,1.83-.04,3.04-1.26-.06-1.89-.09-3.14-.15Zm3.11,3.22c0-1.26,0-1.86.03-3.07,3.77.19,5.67.3,9.46.48-.01,1.18-.02,1.76-.02,3.02-3.8-.15-5.69-.25-9.47-.44Zm9.49-2.59c.03-2.36.04-3.62.02-6.06,1.26.07,1.89.11,3.16.18.02,2.44,0,3.69-.02,6.02-1.26-.05-1.9-.08-3.16-.14Z"/>
            <path class="cls-5" d="m513.3,456.47c-.02-3.65-.03-5.57,0-8.98,1.26.06,1.89.08,3.15.12-.03,3.41-.02,5.32,0,8.98-1.26-.04-1.89-.06-3.16-.12Zm3.16-8.86c0-1.13.01-1.7.01-2.95,3.77.12,5.66.15,9.43.04,0,1.25,0,1.81,0,2.94-3.77.12-5.66.09-9.45-.03Zm0,12.05c0-1.19,0-1.85,0-3.07,3.79.11,5.68.14,9.45.02,0,1.22,0,1.89,0,3.06-3.77.12-5.66.09-9.45-.02Zm9.45-3.05c0-3.65,0-5.57,0-8.96,1.26-.04,1.88-.08,3.14-.13,0,3.39,0,5.31,0,8.96-1.26.06-1.88.1-3.14.13Z"/>
            <path class="cls-5" d="m544.45,461.43c0-5.58,0-9.4,0-14.56,1.25-.07,1.88-.1,3.13-.18,0,5.04,0,8.89,0,14.48-1.25.11-1.88.16-3.13.26Zm3.13-14.74c0-1.01,0-1.5,0-2.74,3.75-.19,5.63-.31,9.37-.74,0,1.24,0,1.7,0,2.65-3.74.44-5.62.59-9.37.83Zm0,17.41c0-1.25,0-1.81,0-2.93,3.75-.33,5.63-.52,9.37-.99,0,1.13,0,1.68,0,2.94-3.74.47-5.62.66-9.37.98Zm9.37-15.77c0-1.1,0-1.52,0-2.47,1.25-.15,1.87-.23,3.12-.4v2.45c-1.25.18-1.87.26-3.12.42Zm0,11.85c0-1.12,0-1.66,0-2.85,1.25-.16,1.87-.24,3.12-.42v2.86c-1.25.18-1.87.26-3.12.42Z"/>
          </g>
          <g>
            <path class="cls-13" d="m462.94,461.07c0-1.25,0-1.88,0-3.13,1.25.18,1.87.27,3.12.45,0-5.01,0-7.51,0-12.53-1.24-.18-1.87-.27-3.11-.45,0-1.25,0-1.88,0-3.13,1.25.18,1.87.27,3.12.46,0-1.25,0-1.87,0-3.13,1.25.19,1.87.29,3.12.49.01,7.56,0,11.24-.01,18.73,1.24.18,1.87.26,3.11.44,0,1.24,0,1.87,0,3.12-3.73-.51-5.59-.78-9.33-1.31Z"/>
            <path class="cls-12" d="m475.38,459.68c.03-6.19-.04-9.42.02-15.49,1.25.19,1.87.29,3.12.48-.05,3.6-.03,5.5-.01,9.21,1.25.16,1.87.24,3.12.39,0,1.23.01,1.87,0,3.11-1.25-.15-1.87-.23-3.12-.39,0,1.24-.01,1.86-.02,3.09-1.24-.16-1.87-.24-3.11-.4Zm3.14-15.01c.02-1.2.03-1.8.03-3.05,3.75.59,5.63.87,9.39,1.29,0,1.25-.02,1.82-.05,2.98-3.75-.4-5.62-.66-9.37-1.22Zm-.04,18.52c0-1.25,0-1.87.01-3.1,3.73.47,5.6.68,9.34,1.01-.01,1.22-.02,1.83-.02,3.08-3.74-.32-5.61-.53-9.33-.99Zm3.14-8.91c0-1.23-.02-1.84-.03-3.07,1.24.16,1.87.23,3.11.37.01,1.23.02,1.83.03,3.06-1.25-.14-1.87-.21-3.12-.36Zm6.22,6.82c.04-3.66.03-5.53-.01-9.2-1.25-.12-1.87-.19-3.12-.33-.01-1.23-.02-1.88,0-3.09,1.25.14,1.87.21,3.12.33.02-1.2.03-1.77.06-2.93,1.25.13,1.88.19,3.13.3-.16,5.75.03,9.09-.05,15.16-1.25-.09-1.88-.14-3.12-.25Z"/>
            <path class="cls-12" d="m494.12,455.41c-.06-4.88.07-6.96.08-11.97,6.28.36,9.42.56,15.71.92,0,1.25-.01,1.81-.03,2.95-5.05-.28-7.57-.48-12.6-.75-.07,2.29-.1,3.53-.07,5.97,3.77.2,5.67.33,9.47.56.01,1.22.02,1.81.03,3.03-5.05-.3-7.58-.44-12.6-.71Zm-.03,6.14c.02-1.21.03-1.81.04-3.04,1.25.07,1.88.09,3.14.16,0,1.23-.02,1.83-.04,3.04-1.26-.06-1.89-.09-3.14-.15Zm3.11,3.22c0-1.26,0-1.86.03-3.07,3.77.19,5.67.3,9.46.48-.01,1.18-.02,1.76-.02,3.02-3.8-.15-5.69-.25-9.47-.44Zm9.49-2.59c.03-2.36.04-3.62.02-6.06,1.26.07,1.89.11,3.16.18.02,2.44,0,3.69-.02,6.02-1.26-.05-1.9-.08-3.16-.14Z"/>
            <path class="cls-12" d="m513.3,456.47c-.02-3.65-.03-5.57,0-8.98,1.26.06,1.89.08,3.15.12-.03,3.41-.02,5.32,0,8.98-1.26-.04-1.89-.06-3.16-.12Zm3.16-8.86c0-1.13.01-1.7.01-2.95,3.77.12,5.66.15,9.43.04,0,1.25,0,1.81,0,2.94-3.77.12-5.66.09-9.45-.03Zm0,12.05c0-1.19,0-1.85,0-3.07,3.79.11,5.68.14,9.45.02,0,1.22,0,1.89,0,3.06-3.77.12-5.66.09-9.45-.02Zm9.45-3.05c0-3.65,0-5.57,0-8.96,1.26-.04,1.88-.08,3.14-.13,0,3.39,0,5.31,0,8.96-1.26.06-1.88.1-3.14.13Z"/>
            <path class="cls-12" d="m544.45,461.43c0-5.58,0-9.4,0-14.56,1.25-.07,1.88-.1,3.13-.18,0,5.04,0,8.89,0,14.48-1.25.11-1.88.16-3.13.26Zm3.13-14.74c0-1.01,0-1.5,0-2.74,3.75-.19,5.63-.31,9.37-.74,0,1.24,0,1.7,0,2.65-3.74.44-5.62.59-9.37.83Zm0,17.41c0-1.25,0-1.81,0-2.93,3.75-.33,5.63-.52,9.37-.99,0,1.13,0,1.68,0,2.94-3.74.47-5.62.66-9.37.98Zm9.37-15.77c0-1.1,0-1.52,0-2.47,1.25-.15,1.87-.23,3.12-.4v2.45c-1.25.18-1.87.26-3.12.42Zm0,11.85c0-1.12,0-1.66,0-2.85,1.25-.16,1.87-.24,3.12-.42v2.86c-1.25.18-1.87.26-3.12.42Z"/>
          </g>
        </g>
        <g class="cls-31">
          <path class="cls-18" d="m472.3,663.4c0-3.76,0-5.64,0-9.4-3.75-.48-5.62-.73-9.36-1.26,0-5.01,0-7.52,0-12.53,1.25.18,1.87.26,3.12.44,0,3.76,0,5.64,0,9.4,2.5.34,3.74.51,6.24.83,0-3.76,0-5.64,0-9.4,1.25.16,1.87.24,3.12.39,0,3.76,0,5.64,0,9.4,1.25.15,1.87.23,3.12.37v3.13c-1.25-.15-1.87-.22-3.12-.37,0,3.76,0,5.64,0,9.4-1.25-.15-1.87-.23-3.12-.39Z"/>
          <path class="cls-18" d="m481.67,661.38c0-6.27,0-9.4,0-15.67,1.25.14,1.88.21,3.13.34,0,3.76,0,5.64,0,9.4,1.25.13,1.88.2,3.13.33,0,1.25,0,1.88,0,3.13-1.25-.13-1.88-.19-3.13-.33,0,1.25,0,1.88,0,3.13-1.25-.13-1.88-.2-3.13-.34Zm3.13-15.32c0-1.25,0-1.88,0-3.13,3.75.4,5.63.59,9.39.93,0,1.25,0,1.88,0,3.13-3.76-.35-5.64-.53-9.39-.93Zm0,18.8c0-1.25,0-1.88,0-3.13,3.75.4,5.63.59,9.39.93,0,1.25,0,1.88,0,3.13-3.76-.35-5.64-.53-9.39-.93Zm3.13-9.07v-3.13c1.25.13,1.88.19,3.13.31v3.13c-1.25-.12-1.88-.18-3.13-.31Zm6.26,6.87c0-3.76,0-5.64,0-9.4-1.25-.12-1.88-.17-3.13-.3,0-1.25,0-1.88,0-3.13,1.25.12,1.88.18,3.13.3,0-1.25,0-1.88,0-3.13,1.25.12,1.88.17,3.13.28,0,6.27,0,9.4,0,15.67-1.25-.11-1.88-.17-3.13-.28Z"/>
          <path class="cls-18" d="m500.45,663.21c0-6.27,0-9.4,0-15.67,1.25.1,1.88.15,3.13.25,0,3.76,0,5.64,0,9.4,1.25.1,1.88.14,3.14.23,0,1.25,0,1.88,0,3.13-1.25-.09-1.88-.14-3.14-.23,0,1.25,0,1.88,0,3.13-1.25-.1-1.88-.15-3.13-.25Zm3.13-15.42c0-1.25,0-1.88,0-3.13,3.76.29,5.64.42,9.41.65,0,1.25,0,1.88,0,3.13-3.76-.23-5.65-.36-9.41-.65Zm0,18.8c0-1.25,0-1.88,0-3.13,3.76.29,5.64.42,9.41.65,0,1.25,0,1.88,0,3.13-3.76-.23-5.65-.36-9.41-.65Zm3.14-9.17v-3.13c1.25.09,1.88.13,3.14.22v3.13c-1.25-.08-1.88-.13-3.14-.22Zm6.27,6.69c0-3.76,0-5.64,0-9.4-1.25-.08-1.88-.12-3.14-.2,0-1.25,0-1.88,0-3.13,1.25.08,1.88.12,3.14.2,0-1.25,0-1.88,0-3.13,1.25.08,1.88.11,3.14.19,0,6.27,0,9.4,0,15.67-1.25-.07-1.88-.11-3.14-.19Z"/>
          <path class="cls-18" d="m519.27,661.33c0-6.27,0-9.4,0-15.67,1.26.07,1.88.1,3.14.16,0,6.27,0,9.4,0,15.67-1.26-.06-1.88-.09-3.14-.16Zm3.14,3.29c0-1.25,0-1.88,0-3.13,1.26.06,1.88.09,3.14.14,0,1.25,0,1.88,0,3.13-1.26-.05-1.88-.08-3.14-.14Zm3.14,3.27c0-1.25,0-1.88,0-3.13,1.26.05,1.88.08,3.14.12,0,1.25,0,1.88,0,3.13-1.26-.05-1.88-.07-3.14-.12Zm3.14-3.01c0-1.25,0-1.88,0-3.13,1.26.05,1.88.07,3.14.11,0,1.25,0,1.88,0,3.13-1.26-.04-1.88-.06-3.14-.11Zm3.14-3.02c0-6.27,0-9.4,0-15.67,1.26.04,1.88.06,3.14.09,0,6.27,0,9.4,0,15.67-1.26-.03-1.88-.05-3.14-.09Z"/>
          <path class="cls-18" d="m544.39,659.01c0-5.01,0-7.52,0-12.53,6.28.08,9.42.08,15.71,0,0,1.25,0,1.88,0,3.13-5.03.06-7.54.07-12.56.03,0,2.51,0,3.76,0,6.27,3.77.03,5.65.03,9.42,0v3.13c-5.03.04-7.54.03-12.57-.03Zm0,6.27c0-1.25,0-1.88,0-3.13,1.26.02,1.89.02,3.14.03,0,1.25,0,1.88,0,3.13-1.26,0-1.89-.02-3.14-.03Zm3.14,3.17c0-1.25,0-1.88,0-3.13,3.77.03,5.65.03,9.42,0,0,1.25,0,1.88,0,3.13-3.77.03-5.65.03-9.42,0Zm9.42-3.13c0-2.51,0-3.76,0-6.27,1.26,0,1.88-.02,3.14-.03,0,2.51,0,3.76,0,6.27-1.26.02-1.88.02-3.14.03Z"/>
          <path class="cls-18" d="m563.23,655.83c0-2.51,0-3.76,0-6.27,1.26-.02,1.88-.03,3.14-.06,0,2.51,0,3.76,0,6.27-1.26.03-1.88.04-3.14.06Zm0,9.4c0-2.51,0-3.76,0-6.27,1.26-.02,1.88-.03,3.14-.06,0,2.51,0,3.76,0,6.27-1.26.03-1.88.04-3.14.06Zm3.14-15.73c0-1.25,0-1.88,0-3.13,3.77-.08,5.65-.14,9.42-.28,0,1.25,0,1.88,0,3.13-3.77.14-5.65.2-9.42.28Zm0,9.4v-3.13c3.77-.08,5.65-.14,9.42-.28v3.13c-3.77.14-5.65.2-9.42.28Zm0,9.4c0-1.25,0-1.88,0-3.13,3.77-.08,5.65-.14,9.42-.28,0,1.25,0,1.88,0,3.13-3.77.14-5.65.2-9.42.28Zm9.42-12.81c0-2.51,0-3.76,0-6.27,1.26-.05,1.88-.07,3.14-.12,0,2.51,0,3.76,0,6.27-1.26.05-1.88.08-3.14.12Zm0,9.4c0-2.51,0-3.76,0-6.27,1.26-.05,1.88-.07,3.14-.12,0,2.51,0,3.76,0,6.27-1.26.05-1.88.08-3.14.12Z"/>
          <path class="cls-18" d="m582.07,664.62c0-6.27,0-9.4,0-15.67,1.26-.06,1.88-.09,3.14-.16,0,3.76,0,5.64,0,9.4,1.25-.07,1.88-.1,3.14-.17v3.13c-1.25.07-1.88.11-3.14.17v3.13c-1.26.07-1.88.1-3.14.16Zm3.14-15.82c0-1.25,0-1.88,0-3.13,3.77-.2,5.65-.31,9.41-.56,0,1.25,0,1.88,0,3.13-3.76.25-5.65.36-9.41.56Zm0,18.8c0-1.25,0-1.88,0-3.13,3.77-.2,5.65-.31,9.41-.56,0,1.25,0,1.88,0,3.13-3.76.25-5.65.36-9.41.56Zm3.14-9.57v-3.13c1.26-.07,1.88-.11,3.14-.19v3.13c-1.25.08-1.88.12-3.14.19Zm6.27,5.88v-9.4c-1.25.08-1.88.12-3.14.2v-3.13c1.25-.08,1.88-.12,3.14-.2v-3.13c1.25-.08,1.88-.13,3.13-.22,0,6.27,0,9.4,0,15.67-1.25.09-1.88.13-3.13.22Z"/>
          <path class="cls-18" d="m607.16,662.94v-12.53c1.25-.11,1.88-.17,3.13-.28v12.53c-1.25.12-1.88.17-3.13.28Zm3.13,2.85v-3.13c3.76-.35,5.64-.53,9.39-.93v-12.53c1.25-.13,1.88-.2,3.13-.34,0,6.27,0,9.4,0,15.67-5,.56-7.51.82-12.52,1.28Z"/>
          <path class="cls-18" d="m625.94,664.16c0-8.77,0-13.16,0-21.93,6.25-.73,9.37-1.14,15.61-2.02,0,1.25,0,1.88,0,3.13-4.99.71-7.49,1.04-12.48,1.65,0,2.51,0,3.76,0,6.27,3.75-.46,5.62-.7,9.37-1.21v3.13c-3.74.51-5.62.76-9.37,1.21,0,3.76,0,5.64,0,9.4-1.25.15-1.87.23-3.13.37Z"/>
        </g>
        <g>
          <g>
            <path class="cls-16" d="m462.94,628.5c0-1.25,0-1.88,0-3.13,1.25.18,1.87.27,3.12.45,0-5.01,0-7.51,0-12.53-1.24-.18-1.87-.27-3.11-.45,0-1.25,0-1.88,0-3.13,1.25.18,1.87.27,3.12.46,0-1.25,0-1.87,0-3.13,1.25.19,1.87.29,3.12.49.01,7.56,0,11.24-.01,18.73,1.24.18,1.87.26,3.11.44,0,1.24,0,1.87,0,3.12-3.73-.51-5.59-.78-9.33-1.31Z"/>
            <path class="cls-16" d="m475.38,627.11c.03-6.19-.04-9.42.02-15.49,1.25.19,1.87.29,3.12.48-.05,3.6-.03,5.5-.01,9.21,1.25.16,1.87.24,3.12.39,0,1.23.01,1.87,0,3.11-1.25-.15-1.87-.23-3.12-.39,0,1.24-.01,1.86-.02,3.09-1.24-.16-1.87-.24-3.11-.4Zm3.14-15.01c.02-1.2.03-1.8.03-3.05,3.75.59,5.63.87,9.39,1.29,0,1.25-.02,1.82-.05,2.98-3.75-.4-5.62-.66-9.37-1.22Zm-.04,18.52c0-1.25,0-1.87.01-3.1,3.73.47,5.6.68,9.34,1.01-.01,1.22-.02,1.83-.02,3.08-3.74-.32-5.61-.53-9.33-.99Zm3.14-8.91c0-1.23-.02-1.84-.03-3.07,1.24.16,1.87.23,3.11.37.01,1.23.02,1.83.03,3.06-1.25-.14-1.87-.21-3.12-.36Zm6.22,6.82c.04-3.66.03-5.53-.01-9.2-1.25-.12-1.87-.19-3.12-.33-.01-1.23-.02-1.88,0-3.09,1.25.14,1.87.21,3.12.33.02-1.2.03-1.77.06-2.93,1.25.13,1.88.19,3.13.3-.16,5.75.03,9.09-.05,15.16-1.25-.09-1.88-.14-3.12-.25Z"/>
            <path class="cls-16" d="m494.12,622.84c-.06-4.88.07-6.96.08-11.97,6.28.36,9.42.56,15.71.92,0,1.25-.01,1.81-.03,2.95-5.05-.28-7.57-.48-12.6-.75-.07,2.29-.1,3.53-.07,5.97,3.77.2,5.67.33,9.47.56.01,1.22.02,1.81.03,3.03-5.05-.3-7.58-.44-12.6-.71Zm-.03,6.14c.02-1.21.03-1.81.04-3.04,1.25.07,1.88.09,3.14.16,0,1.23-.02,1.83-.04,3.04-1.26-.06-1.89-.09-3.14-.15Zm3.11,3.22c0-1.26,0-1.86.03-3.07,3.77.19,5.67.3,9.46.48-.01,1.18-.02,1.76-.02,3.02-3.8-.15-5.69-.25-9.47-.44Zm9.49-2.59c.03-2.36.04-3.62.02-6.06,1.26.07,1.89.11,3.16.18.02,2.44,0,3.69-.02,6.02-1.26-.05-1.9-.08-3.16-.14Z"/>
            <path class="cls-16" d="m513.3,623.9c-.02-3.65-.03-5.57,0-8.98,1.26.06,1.89.08,3.15.12-.03,3.41-.02,5.32,0,8.98-1.26-.04-1.89-.06-3.16-.12Zm3.16-8.86c0-1.13.01-1.7.01-2.95,3.77.12,5.66.15,9.43.04,0,1.25,0,1.81,0,2.94-3.77.12-5.66.09-9.45-.03Zm0,12.05c0-1.19,0-1.85,0-3.07,3.79.11,5.68.14,9.45.02,0,1.22,0,1.89,0,3.06-3.77.12-5.66.09-9.45-.02Zm9.45-3.05c0-3.65,0-5.57,0-8.96,1.26-.04,1.88-.08,3.14-.13,0,3.39,0,5.31,0,8.96-1.26.06-1.88.1-3.14.13Z"/>
            <path class="cls-16" d="m544.45,628.86c0-5.58,0-9.4,0-14.56,1.25-.07,1.88-.1,3.13-.18,0,5.04,0,8.89,0,14.48-1.25.11-1.88.16-3.13.26Zm3.13-14.74c0-1.01,0-1.5,0-2.74,3.75-.19,5.63-.31,9.37-.74,0,1.24,0,1.7,0,2.65-3.74.44-5.62.59-9.37.83Zm0,17.41c0-1.25,0-1.81,0-2.93,3.75-.33,5.63-.52,9.37-.99,0,1.13,0,1.68,0,2.93-3.74.47-5.62.66-9.37.98Zm9.37-15.77c0-1.1,0-1.52,0-2.47,1.25-.15,1.87-.23,3.12-.4v2.45c-1.25.18-1.87.26-3.12.42Zm0,11.85c0-1.13,0-1.66,0-2.85,1.25-.16,1.87-.24,3.12-.42v2.85c-1.25.18-1.87.26-3.12.42Z"/>
          </g>
          <g>
            <path class="cls-12" d="m462.94,628.5c0-1.25,0-1.88,0-3.13,1.25.18,1.87.27,3.12.45,0-5.01,0-7.51,0-12.53-1.24-.18-1.87-.27-3.11-.45,0-1.25,0-1.88,0-3.13,1.25.18,1.87.27,3.12.46,0-1.25,0-1.87,0-3.13,1.25.19,1.87.29,3.12.49.01,7.56,0,11.24-.01,18.73,1.24.18,1.87.26,3.11.44,0,1.24,0,1.87,0,3.12-3.73-.51-5.59-.78-9.33-1.31Z"/>
            <path class="cls-12" d="m475.38,627.11c.03-6.19-.04-9.42.02-15.49,1.25.19,1.87.29,3.12.48-.05,3.6-.03,5.5-.01,9.21,1.25.16,1.87.24,3.12.39,0,1.23.01,1.87,0,3.11-1.25-.15-1.87-.23-3.12-.39,0,1.24-.01,1.86-.02,3.09-1.24-.16-1.87-.24-3.11-.4Zm3.14-15.01c.02-1.2.03-1.8.03-3.05,3.75.59,5.63.87,9.39,1.29,0,1.25-.02,1.82-.05,2.98-3.75-.4-5.62-.66-9.37-1.22Zm-.04,18.52c0-1.25,0-1.87.01-3.1,3.73.47,5.6.68,9.34,1.01-.01,1.22-.02,1.83-.02,3.08-3.74-.32-5.61-.53-9.33-.99Zm3.14-8.91c0-1.23-.02-1.84-.03-3.07,1.24.16,1.87.23,3.11.37.01,1.23.02,1.83.03,3.06-1.25-.14-1.87-.21-3.12-.36Zm6.22,6.82c.04-3.66.03-5.53-.01-9.2-1.25-.12-1.87-.19-3.12-.33-.01-1.23-.02-1.88,0-3.09,1.25.14,1.87.21,3.12.33.02-1.2.03-1.77.06-2.93,1.25.13,1.88.19,3.13.3-.16,5.75.03,9.09-.05,15.16-1.25-.09-1.88-.14-3.12-.25Z"/>
            <path class="cls-12" d="m494.12,622.84c-.06-4.88.07-6.96.08-11.97,6.28.36,9.42.56,15.71.92,0,1.25-.01,1.81-.03,2.95-5.05-.28-7.57-.48-12.6-.75-.07,2.29-.1,3.53-.07,5.97,3.77.2,5.67.33,9.47.56.01,1.22.02,1.81.03,3.03-5.05-.3-7.58-.44-12.6-.71Zm-.03,6.14c.02-1.21.03-1.81.04-3.04,1.25.07,1.88.09,3.14.16,0,1.23-.02,1.83-.04,3.04-1.26-.06-1.89-.09-3.14-.15Zm3.11,3.22c0-1.26,0-1.86.03-3.07,3.77.19,5.67.3,9.46.48-.01,1.18-.02,1.76-.02,3.02-3.8-.15-5.69-.25-9.47-.44Zm9.49-2.59c.03-2.36.04-3.62.02-6.06,1.26.07,1.89.11,3.16.18.02,2.44,0,3.69-.02,6.02-1.26-.05-1.9-.08-3.16-.14Z"/>
            <path class="cls-12" d="m513.3,623.9c-.02-3.65-.03-5.57,0-8.98,1.26.06,1.89.08,3.15.12-.03,3.41-.02,5.32,0,8.98-1.26-.04-1.89-.06-3.16-.12Zm3.16-8.86c0-1.13.01-1.7.01-2.95,3.77.12,5.66.15,9.43.04,0,1.25,0,1.81,0,2.94-3.77.12-5.66.09-9.45-.03Zm0,12.05c0-1.19,0-1.85,0-3.07,3.79.11,5.68.14,9.45.02,0,1.22,0,1.89,0,3.06-3.77.12-5.66.09-9.45-.02Zm9.45-3.05c0-3.65,0-5.57,0-8.96,1.26-.04,1.88-.08,3.14-.13,0,3.39,0,5.31,0,8.96-1.26.06-1.88.1-3.14.13Z"/>
            <path class="cls-12" d="m544.45,628.86c0-5.58,0-9.4,0-14.56,1.25-.07,1.88-.1,3.13-.18,0,5.04,0,8.89,0,14.48-1.25.11-1.88.16-3.13.26Zm3.13-14.74c0-1.01,0-1.5,0-2.74,3.75-.19,5.63-.31,9.37-.74,0,1.24,0,1.7,0,2.65-3.74.44-5.62.59-9.37.83Zm0,17.41c0-1.25,0-1.81,0-2.93,3.75-.33,5.63-.52,9.37-.99,0,1.13,0,1.68,0,2.93-3.74.47-5.62.66-9.37.98Zm9.37-15.77c0-1.1,0-1.52,0-2.47,1.25-.15,1.87-.23,3.12-.4v2.45c-1.25.18-1.87.26-3.12.42Zm0,11.85c0-1.13,0-1.66,0-2.85,1.25-.16,1.87-.24,3.12-.42v2.85c-1.25.18-1.87.26-3.12.42Z"/>
          </g>
        </g>
      </g>
      <circle class="cls-7" cx="540" cy="547.38" r="481.43"/>
    </g>
  </g>
</svg>